<svg width="25" height="25" viewBox="0 0 25 25" fill="none" xmlns="http://www.w3.org/2000/svg">
<path fill-rule="evenodd" clip-rule="evenodd" d="M11.1571 5.04513L10.8602 5.09027L10.532 5.17219L10.2038 5.25411L9.81316 5.40638L9.42246 5.55866L9.10103 5.73897L8.77957 5.91928L8.49155 6.12182L8.2035 6.32435L7.7653 6.76255L7.3271 7.20075L7.12457 7.4888L6.92203 7.77682L6.74185 8.09828L6.56163 8.41971L6.40857 8.81041L6.25551 9.2011L6.17459 9.52928L6.09367 9.85746L6.04741 10.1856L6.00116 10.5138L6.00056 10.9787L6 11.4435L6.04916 11.7757L6.09833 12.1078L6.16003 12.3735L6.22169 12.6392L6.3023 12.9049L6.38291 13.1705L6.51553 13.5143L6.64817 13.8581L6.84543 14.2801L7.04271 14.702L7.22927 15.0459L7.41584 15.3897L7.60374 15.7022L7.79165 16.0148L8.10361 16.4826L8.4156 16.9505L8.66699 17.2953L8.91841 17.64L9.26134 18.0776L9.60424 18.5152L9.85607 18.8121L10.1079 19.109L10.4684 19.5154L10.8288 19.9217L11.3576 20.4608L11.8864 21H12.001H12.1156L12.645 20.4608L13.1744 19.9217L13.5771 19.4685L13.9798 19.0153L14.3763 18.5308L14.7729 18.0464L15.1012 17.6088L15.4295 17.1712L15.7097 16.7649L15.9898 16.3586L16.2045 16.0154L16.4192 15.6722L16.5743 15.4059L16.7293 15.1396L16.9719 14.6552L17.2146 14.1707L17.3596 13.8302L17.5046 13.4897L17.6301 13.1143L17.7556 12.7389L17.8298 12.4234L17.904 12.1078L17.9531 11.7757L18.0021 11.4435L18.0015 10.9787L18.0009 10.5138L17.9546 10.1856L17.9084 9.85746L17.8268 9.52928L17.7452 9.2011L17.5929 8.81041L17.4407 8.41971L17.2603 8.09828L17.08 7.77682L16.8769 7.49077L16.6737 7.20472L16.349 6.86582L16.0244 6.52692L15.7864 6.33501L15.5485 6.14313L15.2672 5.95751L14.9859 5.77188L14.6109 5.59004L14.2358 5.4082L13.9004 5.29686L13.565 5.1855L13.1815 5.10439L12.798 5.02329L12.1261 5.01166L11.4541 5L11.1571 5.04513ZM12.6038 8.33117L12.8159 8.37833L13.0085 8.45381L13.201 8.52926L13.4215 8.65919L13.6419 8.78909L13.9261 9.07323L14.2102 9.35737L14.3401 9.57785L14.47 9.79832L14.5455 9.99086L14.621 10.1834L14.6737 10.4111L14.7265 10.6388L14.7281 10.9983L14.7297 11.3577L14.6634 11.6299L14.597 11.9022L14.5034 12.1087L14.4097 12.3152L14.2708 12.5241L14.1318 12.733L13.9025 12.9551L13.6732 13.1772L13.4881 13.2955L13.303 13.4137L13.1112 13.5007L12.9194 13.5877L12.7224 13.6387L12.5253 13.6898L12.2736 13.7185L12.0218 13.7472L11.7318 13.7171L11.4417 13.6871L11.1509 13.5936L10.8602 13.5002L10.6102 13.3542L10.3601 13.2083L10.076 12.9237L9.79184 12.6392L9.66194 12.4187L9.53201 12.1982L9.45569 12.0035L9.37933 11.8087L9.32513 11.5676L9.27091 11.3265L9.27134 10.9827L9.27175 10.6388L9.34292 10.3575L9.41409 10.0762L9.49985 9.88628L9.58558 9.69628L9.70386 9.51121L9.82216 9.32612L10.0443 9.0968L10.2664 8.86748L10.4752 8.72852L10.6841 8.58959L10.8816 8.5017L11.079 8.41381L11.276 8.35998L11.4729 8.30616L11.6667 8.27944L11.8604 8.25272L12.1261 8.26834L12.3917 8.28397L12.6038 8.33117Z" fill="#ADACAC"/>
</svg>
