<svg width="25" height="25" viewBox="0 0 25 25" fill="none" xmlns="http://www.w3.org/2000/svg">
<path fill-rule="evenodd" clip-rule="evenodd" d="M11.9592 5.04649L11.6133 5.08628L11.2607 5.15373L10.9082 5.22118L10.5375 5.32787L10.1668 5.43458L9.85969 5.54961L9.55257 5.66461L9.23015 5.81556L8.90773 5.96651L8.54157 6.18388L8.17541 6.40125L7.86256 6.63347L7.54971 6.8657L7.25248 7.13144L6.95524 7.39714L6.73274 7.64923L6.51024 7.90129L6.32457 8.14757L6.13886 8.39381L5.98926 8.62845L5.83962 8.86308L5.65514 9.2385L5.47062 9.61392L5.35812 9.92677L5.24562 10.2396L5.1695 10.5525L5.09335 10.8653L5.04668 11.2189L5 11.5724L5.00022 12.0479L5.00044 12.5234L5.05947 12.9145L5.11848 13.3055L5.18593 13.5714L5.25341 13.8374L5.35871 14.1346L5.46402 14.4318L5.57861 14.6821L5.69321 14.9323L5.85245 15.2139L6.01169 15.4955L6.20043 15.7614L6.3892 16.0273L6.58827 16.2575L6.78733 16.4876L6.8179 16.568L6.84846 16.6484L6.8765 16.9447L6.90453 17.241L6.87562 17.4945L6.84668 17.748L6.7985 17.9357L6.75032 18.1234L6.62731 18.3818L6.50427 18.6402L6.40325 18.7885L6.30223 18.9368L6.15563 19.1089L6.009 19.2809L5.97377 19.3493L5.93854 19.4176L5.93867 19.5526L5.93876 19.6876L6.00096 19.7896L6.06312 19.8915L6.16508 19.9537L6.26704 20.0159L6.55676 20.016L6.84649 20.0161L7.15118 19.9675L7.45586 19.9188L7.69725 19.8576L7.93865 19.7963L8.18498 19.7055L8.43132 19.6147L8.67878 19.4916L8.92625 19.3686L9.09168 19.2701L9.25708 19.1717L9.43581 19.0408L9.61451 18.91L9.80375 18.7452L9.993 18.5804L10.3277 18.6866L10.6623 18.7928L11.0144 18.8709L11.3665 18.9491L11.695 19.0002L12.0234 19.0514L12.7586 19.0678L13.4938 19.0842L13.9434 19.034L14.3929 18.9838L14.7766 18.9061L15.1602 18.8284L15.5315 18.7161L15.9028 18.6037L16.2555 18.466L16.6083 18.3282L17.0064 18.1255L17.4044 17.9228L17.7486 17.699L18.0927 17.4752L18.3853 17.2404L18.6779 17.0057L18.899 16.798L19.1201 16.5904L19.4152 16.2463L19.7104 15.9022L19.9247 15.582L20.139 15.2618L20.3565 14.8272L20.5741 14.3925L20.7009 14.0026L20.8277 13.6127L20.9139 13.2089L21 12.805V12.0385V11.272L20.9139 10.8681L20.8277 10.4642L20.7009 10.0744L20.5741 9.6845L20.3565 9.24983L20.139 8.81518L19.9247 8.49498L19.7104 8.17482L19.4152 7.83068L19.1201 7.48655L18.899 7.27894L18.6779 7.07131L18.3853 6.83658L18.0927 6.60181L17.7486 6.378L17.4044 6.15416L17.0064 5.95147L16.6083 5.74877L16.2555 5.61102L15.9028 5.47328L15.5315 5.36093L15.1602 5.24856L14.778 5.17116L14.3958 5.09376L13.9761 5.0469L13.5564 5L12.9307 5.00338L12.305 5.00673L11.9592 5.04649ZM9.70352 10.715L9.85509 10.7628L9.98364 10.8358L10.1122 10.9089L10.2623 11.0563L10.4125 11.2037L10.4876 11.3381L10.5628 11.4726L10.6151 11.6303L10.6675 11.7879V12.0385V12.2891L10.6146 12.4483L10.5617 12.6076L10.4887 12.7361L10.4157 12.8647L10.2682 13.0148L10.1208 13.1649L9.98636 13.2401L9.8519 13.3152L9.69423 13.3676L9.53658 13.42H9.28602H9.03546L8.87782 13.3676L8.72014 13.3152L8.58568 13.2401L8.45122 13.1649L8.3038 13.0148L8.15639 12.8647L8.08337 12.7361L8.01035 12.6076L7.95745 12.4483L7.90455 12.2891V12.0385V11.7879L7.95692 11.6303L8.00929 11.4726L8.08443 11.3381L8.15958 11.2037L8.30972 11.0563L8.45985 10.9089L8.5884 10.8358L8.71695 10.7628L8.86853 10.7137L9.0201 10.6645L9.14524 10.6552L9.27038 10.646L9.41116 10.6566L9.55194 10.6672L9.70352 10.715ZM13.4577 10.715L13.6093 10.7628L13.7378 10.8358L13.8664 10.9089L14.0165 11.0563L14.1666 11.2037L14.2418 11.3381L14.3169 11.4726L14.3693 11.6303L14.4217 11.7879V12.0385V12.2891L14.3688 12.4483L14.3159 12.6076L14.2429 12.7361L14.1698 12.8647L14.0224 13.0148L13.875 13.1649L13.7405 13.2401L13.6061 13.3152L13.4484 13.3676L13.2908 13.42H13.0402H12.7896L12.632 13.3676L12.4743 13.3152L12.3399 13.2401L12.2054 13.1649L12.058 13.0148L11.9106 12.8647L11.8375 12.7361L11.7645 12.6076L11.7116 12.4483L11.6587 12.2891V12.0385V11.7879L11.7111 11.6303L11.7635 11.4726L11.8386 11.3381L11.9138 11.2037L12.0639 11.0563L12.214 10.9089L12.3426 10.8358L12.4711 10.7628L12.6227 10.7137L12.7743 10.6645L12.8994 10.6552L13.0246 10.646L13.1653 10.6566L13.3061 10.6672L13.4577 10.715ZM17.2119 10.715L17.3635 10.7628L17.492 10.8358L17.6205 10.9089L17.7707 11.0563L17.9208 11.2037L17.996 11.3381L18.0711 11.4726L18.1235 11.6303L18.1759 11.7879V12.0385V12.2891L18.123 12.4483L18.0701 12.6076L17.997 12.7361L17.924 12.8647L17.7766 13.0148L17.6292 13.1649L17.4947 13.2401L17.3603 13.3152L17.2026 13.3676L17.0449 13.42H16.7944H16.5438L16.3862 13.3676L16.2285 13.3152L16.094 13.2401L15.9596 13.1649L15.8122 13.0148L15.6647 12.8647L15.5917 12.7361L15.5187 12.6076L15.4658 12.4483L15.4129 12.2891V12.0385V11.7879L15.4653 11.6303L15.5176 11.4726L15.5928 11.3381L15.6679 11.2037L15.8181 11.0563L15.9682 10.9089L16.0968 10.8358L16.2253 10.7628L16.3769 10.7137L16.5285 10.6645L16.6536 10.6552L16.7787 10.646L16.9195 10.6566L17.0603 10.6672L17.2119 10.715Z" fill="#ADACAC"/>
</svg>
