<svg width="25" height="25" viewBox="0 0 25 25" fill="none" xmlns="http://www.w3.org/2000/svg">
<path fill-rule="evenodd" clip-rule="evenodd" d="M12.052 5.04772L11.7135 5.08869L11.3802 5.15678L11.0469 5.22491L10.6875 5.33366L10.3281 5.44241L9.98438 5.58266L9.64062 5.72287L9.28828 5.90737L8.93594 6.09187L8.62287 6.29828L8.30981 6.50469L7.99084 6.75847L7.67188 7.01225L7.34206 7.34206L7.01225 7.67188L6.75847 7.99084L6.50469 8.30981L6.29828 8.62287L6.09187 8.93594L5.90737 9.28828L5.72287 9.64062L5.58266 9.98438L5.44241 10.3281L5.33378 10.6875L5.22519 11.0469L5.15928 11.3663L5.09337 11.6856L5.04669 12.0848L5 12.484V13V13.516L5.04669 13.9152L5.09337 14.3144L5.15928 14.6337L5.22519 14.9531L5.33378 15.3125L5.44241 15.6719L5.58266 16.0156L5.72287 16.3594L5.90737 16.7117L6.09187 17.0641L6.29828 17.3771L6.50469 17.6902L6.75847 18.0092L7.01225 18.3281L7.34206 18.6579L7.67188 18.9878L7.99084 19.2415L8.30981 19.4953L8.62287 19.7017L8.93594 19.9081L9.28828 20.0926L9.64062 20.2771L9.98438 20.4173L10.3281 20.5576L10.6875 20.6662L11.0469 20.7748L11.3663 20.8407L11.6856 20.9066L12.0848 20.9533L12.484 21H13H13.516L13.9152 20.9533L14.3144 20.9066L14.6337 20.8407L14.9531 20.7748L15.3125 20.6662L15.6719 20.5576L16.0156 20.4173L16.3594 20.2771L16.7117 20.0926L17.0641 19.9081L17.3771 19.7017L17.6902 19.4953L18.0092 19.2415L18.3281 18.9878L18.6579 18.6579L18.9878 18.3281L19.2415 18.0092L19.4953 17.6902L19.7017 17.3771L19.9081 17.0641L20.0926 16.7117L20.2771 16.3594L20.4173 16.0156L20.5576 15.6719L20.6662 15.3125L20.7748 14.9531L20.8407 14.6337L20.9066 14.3144L20.9533 13.9152L21 13.516V13V12.484L20.9533 12.0848L20.9066 11.6856L20.8407 11.3663L20.7748 11.0469L20.6662 10.6875L20.5576 10.3281L20.4173 9.98438L20.2771 9.64062L20.0926 9.28828L19.9081 8.93594L19.7017 8.62287L19.4953 8.30981L19.2415 7.99084L18.9878 7.67188L18.6579 7.34206L18.3281 7.01225L18.0092 6.75847L17.6902 6.50469L17.3771 6.29828L17.0641 6.09187L16.7117 5.90737L16.3594 5.72287L16.0156 5.58266L15.6719 5.44241L15.3125 5.33378L14.9531 5.22519L14.6337 5.15928L14.3144 5.09337L13.9152 5.04669L13.516 5L12.9533 5.00338L12.3906 5.00678L12.052 5.04772ZM13.9062 6.83166L14.2344 6.87863L14.5312 6.95666L14.8281 7.03469L15.1406 7.14659L15.4531 7.25847L15.7344 7.39834L16.0156 7.53822L16.25 7.68191L16.4844 7.82559L16.7812 8.04866L17.0781 8.27172L17.4032 8.59678L17.7283 8.92188L17.9513 9.21875L18.1744 9.51562L18.3181 9.75L18.4618 9.98438L18.6017 10.2656L18.7415 10.5469L18.8534 10.8594L18.9653 11.1719L19.0433 11.4688L19.1214 11.7656L19.174 12.1094L19.2265 12.4531V13V13.5469L19.174 13.8906L19.1214 14.2344L19.0433 14.5312L18.9653 14.8281L18.8534 15.1406L18.7415 15.4531L18.6017 15.7344L18.4618 16.0156L18.3181 16.25L18.1744 16.4844L17.9513 16.7812L17.7283 17.0781L17.4032 17.4032L17.0781 17.7283L16.7812 17.9513L16.4844 18.1744L16.25 18.3181L16.0156 18.4618L15.7344 18.6017L15.4531 18.7415L15.1406 18.8534L14.8281 18.9653L14.5312 19.0433L14.2344 19.1214L13.8906 19.174L13.5469 19.2265H13H12.4531L12.1094 19.174L11.7656 19.1214L11.4688 19.0433L11.1719 18.9653L10.8594 18.8534L10.5469 18.7415L10.2656 18.6017L9.98438 18.4618L9.75 18.3181L9.51562 18.1744L9.21875 17.9513L8.92188 17.7283L8.59678 17.4032L8.27172 17.0781L8.04866 16.7812L7.82559 16.4844L7.68191 16.25L7.53822 16.0156L7.39834 15.7344L7.25847 15.4531L7.14659 15.1406L7.03469 14.8281L6.95666 14.5312L6.87863 14.2344L6.82603 13.8906L6.77347 13.5469V13V12.4531L6.82603 12.1094L6.87863 11.7656L6.95666 11.4688L7.03469 11.1719L7.14659 10.8594L7.25847 10.5469L7.39834 10.2656L7.53822 9.98438L7.68191 9.75L7.82559 9.51562L8.04866 9.21875L8.27172 8.92188L8.59678 8.59678L8.92188 8.27172L9.21875 8.04866L9.51562 7.82559L9.75 7.68191L9.98438 7.53822L10.2656 7.39834L10.5469 7.25847L10.8594 7.14659L11.1719 7.03469L11.4688 6.95653L11.7656 6.87841L12.1094 6.83012L12.4531 6.78188L12.625 6.76984L12.7969 6.75781L13.1875 6.77125L13.5781 6.78472L13.9062 6.83166ZM12.7887 9.01047L12.6868 9.04744L12.5742 9.13731L12.4615 9.22719L12.3948 9.37141L12.3281 9.51562V11.4844V13.4531L12.3963 13.5781L12.4645 13.7031L13.8182 15.0536L15.1719 16.4041L15.2881 16.452L15.4043 16.5H15.5403H15.6763L15.8457 16.4141L16.0153 16.3281L16.1092 16.1925L16.2031 16.0569V15.8175V15.5781L16.1284 15.4688L16.0536 15.3594L14.8872 14.1875L13.7208 13.0156L13.712 11.2656L13.7031 9.51562L13.6447 9.38209L13.5864 9.24856L13.4653 9.14494L13.3442 9.04128L13.2232 9.00503L13.1021 8.96875L12.9964 8.97112L12.8906 8.9735L12.7887 9.01047Z" fill="#ADACAC"/>
</svg>
