<svg width="25" height="25" viewBox="0 0 25 25" fill="none" xmlns="http://www.w3.org/2000/svg">
<path fill-rule="evenodd" clip-rule="evenodd" d="M9.20869 6.78756L5.593 8.57515L5.61664 8.59707L5.64032 8.61903L7.04709 9.30949L8.45383 9.99994H8.48485H8.51583L12.0445 8.19342L15.5731 6.38694L15.6668 6.33705L15.7605 6.28717L14.4799 5.6551L13.1992 5.02302L13.0118 5.01153L12.8244 5L9.20869 6.78756ZM13.486 8.79767L9.87247 10.6457L9.85379 10.6644L9.83514 10.683L10.0335 10.7844L10.2319 10.8858L11.6177 11.5703L13.0035 12.2548L15.2878 11.122L17.5722 9.98916L18.988 9.289L20.4038 8.5888L20.3936 8.57943L20.3833 8.57006L18.7414 7.75985L17.0996 6.94961L13.486 8.79767ZM5 13.2667V16.9049L5.04239 17.0064L5.0848 17.1078L5.18045 17.1981L5.27609 17.2884L8.8285 19.1421L12.3809 20.9958L12.3879 20.9874L12.395 20.9791L12.41 17.1451L12.4251 13.3111L12.3905 13.283L12.3559 13.255L10.7944 12.4864L9.23299 11.7179H9.20925H9.18551L9.18483 12.7721L9.18414 13.8262L9.12648 13.9512L9.06882 14.0761L8.99398 14.1449L8.91917 14.2137L8.80344 14.262L8.68775 14.3104L8.58524 14.3097L8.48272 14.309L8.35416 14.2506L8.22559 14.1923L8.14638 14.0873L8.06717 13.9824L8.03306 13.8575L7.99892 13.7325L7.99876 12.4201L7.99858 11.1076L7.60033 10.9083L7.20208 10.7089L6.10104 10.1687L5 9.62852V13.2667ZM17.2598 11.4705L13.6053 13.2792L13.5974 17.1396L13.5894 21L13.6164 20.9896L13.6434 20.9791L17.3179 19.0596L20.9924 17.1401V13.3983V9.65635L20.9534 9.65907L20.9143 9.66179L17.2598 11.4705Z" fill="#ADACAC"/>
</svg>
