<svg width="20" height="20" viewBox="0 0 20 20" fill="none" xmlns="http://www.w3.org/2000/svg">
<g clip-path="url(#clip0_770_10)">
<path fill-rule="evenodd" clip-rule="evenodd" d="M15.4688 0.925508L15.332 0.940078L14.9219 1.01906L14.5117 1.09801L14.043 1.25398L13.5742 1.40996L13.1648 1.61082L12.7554 1.81172L12.3641 2.07391L11.9727 2.33609L11.6776 2.58844L11.3826 2.84074L11.0807 3.16844L10.7788 3.49609L10.5274 3.84766L10.2761 4.19922L10.0812 4.55078L9.88641 4.90234L9.73063 5.29297L9.57481 5.68359L9.47387 6.03324L9.37297 6.38293L9.30941 6.76566L9.24582 7.14844L6.54676 7.14867L3.84766 7.14887L3.69141 7.1918L3.53516 7.23473L3.3752 7.40078L3.21523 7.56688L3.17043 7.74488L3.12559 7.92289L3.15047 8.05324L3.17535 8.18359L3.24746 8.32781L3.31961 8.47203L3.44691 8.56617L3.57422 8.66031L3.65234 8.69418L3.73047 8.72809L4.45512 8.74879L5.1798 8.76953L4.14051 11.9922L3.10117 15.2148L3.08379 15.2621L3.06641 15.3094L2.61727 14.9496L2.16813 14.5898L1.70152 14.128L1.23492 13.6661L1.11551 13.6026L0.996094 13.5391L0.777148 13.5378L0.558164 13.5364L0.37 13.653L0.181836 13.7695L0.0909375 13.9417L0 14.1139L0.000859375 14.3128L0.00171875 14.5117L0.0735547 14.668L0.145391 14.8242L0.68793 15.3522L1.23047 15.8802L1.66016 16.2236L2.08984 16.567L2.42188 16.7943L2.75391 17.0216L3.125 17.2469L3.49609 17.4722L4.02504 17.7374L4.55398 18.0027L4.98207 18.1768L5.41016 18.3511L5.89844 18.5085L6.38672 18.6659L6.69922 18.7439L7.01172 18.822L7.42188 18.9021L7.83203 18.9821L8.30078 19.0506L8.76953 19.1191L9.98047 19.1201L11.1914 19.1211L11.5625 19.0705L11.9336 19.0198L12.5586 18.8997L13.1836 18.7796L13.6984 18.6292L14.2132 18.4788L14.7049 18.2977L15.1967 18.1166L15.8503 17.795L16.5039 17.4733L16.933 17.2103L17.3622 16.9473L17.7481 16.6718L18.1341 16.3962L18.4909 16.1019L18.8477 15.8075L19.3504 15.3159L19.8531 14.8242L19.9257 14.668L19.9983 14.5117L19.9991 14.3128L20 14.1139L19.9091 13.9417L19.8182 13.7695L19.63 13.653L19.4418 13.5364L19.2229 13.5378L19.0039 13.5391L18.884 13.6029L18.7641 13.6666L18.3128 14.1133L17.8614 14.5601L17.398 14.9376L16.9345 15.315L16.9169 15.265L16.8993 15.2148L15.8598 11.9922L14.8204 8.76953L16.7754 8.75L18.7305 8.73047L18.8516 8.6641L18.9728 8.59773L19.0916 8.46238L19.2105 8.32703L19.2582 8.1823L19.306 8.03762L19.2865 7.87621L19.2671 7.71484L18.1259 4.51172L16.9847 1.30859L16.8918 1.18562L16.799 1.0627L16.6293 0.980547L16.4597 0.898438L16.0326 0.904687L15.6055 0.910937L15.4688 0.925508ZM16.545 4.81473L17.3673 7.12891L15.4317 7.14844L13.4961 7.16797L13.3638 7.24012L13.2314 7.31223L13.1358 7.41547L13.0401 7.51871L12.9849 7.65086L12.9297 7.78297V7.93441V8.0859L14.2227 12.0996L15.5157 16.1133L15.5329 16.1414L15.5501 16.1696L15.1286 16.3795L14.707 16.5895L14.3253 16.7392L13.9436 16.8889L13.9105 16.8527L13.8774 16.8164L13.4198 15.3906L12.9621 13.9648L12.8655 13.8375L12.7689 13.7102L12.6052 13.6227L12.4414 13.5352H10H7.55859L7.39484 13.6227L7.23109 13.7102L7.13473 13.8375L7.03832 13.9648L6.58055 15.3906L6.12273 16.8164L6.08988 16.8523L6.05703 16.8883L5.77266 16.7796L5.48828 16.671L4.99023 16.4345L4.49219 16.1979L4.49055 16.1556L4.48895 16.1133L5.67219 12.4318L6.85547 8.75027L8.4982 8.75016L10.1409 8.75L10.3465 8.64754L10.5521 8.54508L10.6534 8.39211L10.7546 8.23914L10.8054 7.66449L10.8562 7.08984L10.9398 6.71875L11.0235 6.34766L11.1756 5.95539L11.3277 5.56313L11.5454 5.19473L11.763 4.82637L11.9846 4.55188L12.2062 4.27734L12.4587 4.0307L12.7112 3.78402L12.9864 3.5777L13.2617 3.37133L13.5742 3.18895L13.8867 3.00656L14.2383 2.87238L14.5898 2.73816L14.8223 2.67266L15.0546 2.60711L15.3301 2.55707L15.6055 2.50703L15.6641 2.50383L15.7227 2.50059L16.545 4.81473ZM12.0198 16.2207L12.3744 17.3242L12.3689 17.3307L12.3633 17.3371L11.8338 17.4179L11.3043 17.4986L10.6522 17.5397L10 17.5809L9.35242 17.54L8.70484 17.4992L8.32703 17.4415L7.94922 17.3839L7.78777 17.3541L7.62629 17.3242L7.98117 16.2207L8.33609 15.1172H10.0006H11.6651L12.0198 16.2207Z" fill="#333333"/>
</g>
<defs>
<clipPath id="clip0_770_10">
<rect width="20" height="20" fill="white"/>
</clipPath>
</defs>
</svg>
