<?xml version="1.0" encoding="utf-8"?><svg xmlns="http://www.w3.org/2000/svg" xmlns:xlink="http://www.w3.org/1999/xlink"><symbol viewBox="0 0 22 24" id="basket" xmlns="http://www.w3.org/2000/svg"><g clip-path="url(#aa)"><path d="M10.363 18.443a2.046 2.046 0 0 0-2.045 2.042 2.046 2.046 0 0 0 4.09 0 2.046 2.046 0 0 0-2.045-2.042Zm6.134 0a2.046 2.046 0 0 0-2.045 2.042 2.046 2.046 0 0 0 4.089 0 2.046 2.046 0 0 0-2.044-2.042Zm3.978-8.199L7.413 6.891a.614.614 0 0 0-.75.73L8.67 16.4h-.786L5.482 5.895a.613.613 0 0 0-.474-.464l-4.27-.882A.614.614 0 0 0 .489 5.75l3.885.802L6.797 17.15a.613.613 0 0 0 .598.477h12.07a.615.615 0 0 0 .607-.53l.858-6.175a.613.613 0 0 0-.455-.678Zm-8.14 3.91a.613.613 0 0 1-1.227 0v-2.696a.613.613 0 0 1 1.227 0v2.696Zm2.625 0a.613.613 0 0 1-1.227 0v-1.88a.613.613 0 0 1 1.227 0v1.88Zm2.625 0a.613.613 0 0 1-1.227 0v-1.226a.613.613 0 0 1 1.227 0v1.226Z"/></g><path fill-rule="evenodd" clip-rule="evenodd" d="M16.268 4.568a2.996 2.996 0 0 0-1.693-.523c-.627 0-1.21.193-1.693.523-.28-.843-.492-1.752-.492-2.383C12.39.98 13.37 0 14.575 0s2.185.98 2.185 2.185c0 .631-.212 1.54-.492 2.383Zm-4.722 2.274.024.006v-.011l-.024.005Zm4.972 1.217c-1.333-.33-2.766-.681-4.129-1.013a2.185 2.185 0 1 1 4.129 1.013Zm4.436 1.103c-.866-.217-2.155-.538-3.618-.9a2.995 2.995 0 0 0 .243-1.425c.87.18 1.762.45 2.308.765.596.344.969.928 1.067 1.56ZM9.869 6.439c-.36-.086-.706-.167-1.03-.243a2.19 2.19 0 0 1-.376-2.667 2.188 2.188 0 0 1 3.147-.7c.098.738.338 1.599.61 2.353a3.01 3.01 0 0 0-.449.774c-.628.113-1.305.278-1.902.483Zm10.124.075a3.43 3.43 0 0 1-.217.114c-.696-.295-1.587-.526-2.397-.672a3.01 3.01 0 0 0-.449-.774c.262-.727.494-1.553.599-2.273.095-.067.189-.128.278-.18a2.188 2.188 0 0 1 2.986.8 2.188 2.188 0 0 1-.8 2.985Z"/><defs><clipPath id="aa"><path transform="translate(0 3.064)" d="M0 0h20.936v20.936H0z"/></clipPath></defs></symbol><symbol viewBox="0 0 20 20" id="book" xmlns="http://www.w3.org/2000/svg"><path fill-rule="evenodd" clip-rule="evenodd" d="m2.89 1.883-.097.04-.092.086-.091.085-.055.106-.055.105v2.512L1.455 4.79.41 4.765l-.127.08-.127.08-.078.128L0 5.18v11.056l.073.136.073.136.171.086.171.085 1.172.063 1.172.063.762.058.761.058.673.077.672.076.485.078.484.078.57.118.572.119.552.158.551.159.504.192.503.193h.156l.401-.152.4-.152.5-.16.5-.16.614-.136.613-.137.606-.1.605-.099.664-.076.665-.076.761-.058.762-.058 1.172-.063 1.172-.062.17-.086.172-.086.073-.136.073-.136V5.172l-.088-.132-.089-.133-.154-.076-.155-.075-1.007-.002-1.007-.002V2.353l-.042-.11-.041-.11-.102-.106-.101-.107-.128-.042-.128-.042-.403.044-.403.044-.492.095-.493.096-.484.132-.484.133-.508.182-.507.182-.625.306-.625.306-.352.222-.352.221-.292.222-.293.222-.322.308-.323.308-.323-.31-.324-.31-.292-.22-.291-.22-.348-.217-.347-.218-.456-.232-.456-.232-.427-.174-.427-.174-.444-.143-.444-.142-.464-.114-.464-.113-.479-.078-.479-.078-.273-.02-.274-.022-.097.04Zm1.345 1.343.475.096.515.155.515.155.46.182.46.182.488.253.489.253.33.22.33.22.334.278.335.279.224.25.224.252v10.068l-.113-.093-.112-.093-.327-.265-.327-.266-.39-.267-.391-.266-.475-.272-.475-.272-.482-.217-.482-.217-.488-.177-.489-.176-.566-.155-.567-.155-.01-5.024-.01-5.025h.05l.475.097Zm12.044 4.928-.01 5.024-.566.155-.566.155-.489.176-.488.177-.469.211-.468.211-.43.24-.43.24-.449.304-.45.305-.326.266-.327.265-.113.093-.112.093V6l.235-.26.234-.26.307-.255.306-.256.387-.258.386-.258.586-.288.586-.287.371-.136.371-.137.465-.14.465-.141.453-.094.453-.094.05-.003.048-.003-.01 5.025Zm2.55 2.573v4.785h-.148l-1.01.06-1.01.06-.704.058-.703.059-.645.077-.644.078-.586.1-.586.099-.167.041-.168.042-.02-.02-.02-.019.364-.234.363-.234.41-.218.41-.218.45-.193.448-.192.566-.184.565-.184.575-.132.576-.13.102-.067.101-.067.076-.149.076-.148V5.986l.166-.015.166-.015.498-.007.498-.007v4.785ZM2.193 6.02H2.5v7.781l.063.134.064.133.11.079.11.079.579.132.578.133.371.116.371.115.39.144.391.145.625.308.625.308.403.26.402.26-.013.013-.013.013-.604-.112-.604-.111-.625-.082-.625-.081-.606-.058-.605-.059-.918-.057-.918-.058-.44-.026-.44-.025V5.969l.358.026.358.025h.307Zm3.206.544-.127.08-.078.128-.078.127v.352l.077.124.076.125.096.064.097.063.364.09.364.09.254.107.254.106.345.198.345.198h.335l.143-.088.143-.089.064-.123.065-.123v-.181l.001-.181-.067-.103-.068-.103-.184-.136-.184-.135-.353-.175-.352-.174-.425-.142-.424-.142-.278-.019-.278-.019-.127.08Zm8.397.004-.284.074-.36.144-.36.144-.287.16-.288.16-.151.13-.151.129-.042.154-.041.154.044.163.044.164.117.11.117.109.146.039.145.039.128-.037.128-.037.3-.174.299-.175.307-.122.308-.121.306-.071.307-.072.1-.066.101-.066.076-.125.077-.124v-.352l-.078-.127-.078-.128-.127-.077-.127-.078-.196.002-.195.002-.285.075ZM5.4 9.884l-.127.08-.078.128-.078.127v.352l.077.125.076.124.094.063.095.062.327.09.327.091.254.107.254.107.352.2.351.201h.202l.203.002.108-.08.107-.081.08-.108.081-.108v-.418l-.081-.11-.082-.11-.153-.106-.152-.105-.43-.215-.43-.215-.371-.125-.37-.124-.255-.017-.254-.017-.127.08Zm8.367.022-.315.094-.31.136-.31.136-.332.183-.332.182-.108.102-.109.102-.043.144-.043.145.026.141.027.141.117.134.117.133.14.046.138.046.128-.02.127-.021.347-.195.347-.195.254-.107.254-.107.327-.09.327-.091.095-.063.094-.062.076-.124.077-.125v-.352l-.078-.127-.078-.127-.127-.078-.127-.078-.196.002-.195.002-.315.093Z"/></symbol><symbol viewBox="0 0 20 20" id="cart" xmlns="http://www.w3.org/2000/svg"><path fill-rule="evenodd" clip-rule="evenodd" d="M2 2.796v.797l.798.008.799.008 1.438 3.036 1.439 3.036-.555.949c-.595 1.017-.678 1.208-.718 1.662-.064.727.473 1.471 1.198 1.66.167.042.754.048 5.098.048h4.91v-1.594h-4.634c-3.659 0-4.649-.009-4.71-.04-.149-.075-.12-.174.259-.882l.35-.656 3.125-.016c3.437-.017 3.23-.005 3.598-.209.345-.191.362-.218 1.925-3.042a218.65 218.65 0 0 1 1.57-2.81c.095-.148.11-.196.11-.36a.787.787 0 0 0-.422-.714l-.125-.068-6.047-.009-6.047-.009-.355-.795L4.648 2H2v.796Zm4.547 12.02c-.26.037-.654.238-.853.433-.652.643-.664 1.634-.026 2.267.33.327.698.484 1.135.484.441 0 .858-.187 1.169-.524.59-.64.572-1.583-.04-2.195a1.596 1.596 0 0 0-1.385-.466Zm8 0c-.26.037-.654.238-.853.433-.652.643-.664 1.634-.026 2.267.33.327.698.484 1.135.484.441 0 .858-.187 1.169-.524.59-.64.572-1.583-.04-2.195a1.596 1.596 0 0 0-1.385-.466Z"/></symbol><symbol viewBox="0 0 344.96 344.96" id="check" xmlns="http://www.w3.org/2000/svg"><g data-name="Слой 2"><path class="dcls-1" d="m321.85 86.24-40-23.11-23.1-40H212.5L172.48 0l-40 23.11H86.24l-23.11 40-40 23.1v46.21L0 172.48l23.11 40v46.21l40 23.11 23.11 40h46.21l40 23.1 40-23.11h46.21l23.11-40 40-23.11V212.5l23.11-40-23.11-40V86.24ZM156.91 243.07a16.79 16.79 0 0 1-23.34 0l-50.45-50.44a16.19 16.19 0 0 1 0-22.89l13.35-13.35a16.19 16.19 0 0 1 22.89 0l25.87 25.87 80.34-80.35a16.19 16.19 0 0 1 22.89 0l13.35 13.35a16.19 16.19 0 0 1 0 22.89Z" data-name="Capa 1"/></g></symbol><symbol viewBox="0 0 20 20" id="chevron-left" xmlns="http://www.w3.org/2000/svg"><path d="m11 7-3 3 3 3"/></symbol><symbol viewBox="0 0 20 20" id="chevron-right" xmlns="http://www.w3.org/2000/svg"><path d="m9 7 3 3-3 3"/></symbol><symbol viewBox="0 0 20 20" id="delete" xmlns="http://www.w3.org/2000/svg"><path fill-rule="evenodd" clip-rule="evenodd" d="m7.172.912-.117.052-.11.103-.109.102-.075.167-.076.166v.927l-.001.928H3.126l-.151.077-.151.077-.118.144-.119.144-.043.181-.044.182.037.166.038.166.088.128.088.129.128.088.129.088.148.034.149.035h13.399l.148-.035.148-.034.129-.088.128-.088.088-.129.088-.128.038-.166.037-.166-.044-.182-.043-.181-.119-.144-.118-.144-.151-.077-.15-.077h-3.559v-1.86l-.099-.198-.099-.199-.161-.111-.161-.112-2.758-.009L7.29.859l-.117.053Zm4.512 2.015v.43h-3.36v-.86h3.36v.43ZM3.789 5.948l-.172.09-.117.167-.117.167-.01 4.958-.01 4.958.055.268.056.269.107.266.106.266.138.236.137.237.355.355.355.355.236.137.237.137.266.107.265.106.26.055.26.055h7.617l.26-.055.259-.055.265-.106.266-.107.237-.137.236-.137.355-.355.355-.355.137-.236.137-.237.107-.266.106-.266.055-.26.055-.259v-4.925l.002-4.926-.091-.172-.091-.172-.164-.115-.164-.116-.246-.015-.247-.016-.159.081-.159.081-.117.143-.118.142-.043.17-.042.168v9.521l-.063.21-.062.211-.126.197-.126.197-.152.133-.15.133-.257.121-.255.121-3.728.01-3.728.011-.214-.062-.215-.062-.198-.13-.199-.128-.102-.112-.103-.113-.1-.16-.098-.16-.062-.208-.062-.209V6.634l-.043-.169-.042-.169-.118-.142-.117-.143-.151-.077-.15-.077h-.421l-.173.091Zm4.35 1.588-.128.03-.13.09-.13.089-.088.128-.088.129-.035.148-.034.149v5.898l.034.149.035.148.088.128.088.129.128.088.129.088.166.037.166.038.182-.044.181-.043.148-.122.147-.122.073-.159.072-.159V8.142l-.072-.159-.073-.159-.146-.12-.146-.121-.17-.043-.168-.042-.051.004-.051.004-.127.03Zm3.3.012-.148.047-.136.11-.136.109-.078.153-.078.153v6.256l.077.15.077.152.144.118.144.119.181.043.182.044.166-.038.166-.037.131-.09.132-.09.099-.152.098-.153.024-.2.024-.201-.012-2.969-.011-2.969-.065-.118-.065-.118-.11-.11-.11-.11-.1-.051-.098-.052-.176-.021-.175-.022-.147.047Z"/></symbol><symbol viewBox="0 0 24 24" id="fb" xmlns="http://www.w3.org/2000/svg"><path d="M13.397 20.997v-8.196h2.765l.411-3.209h-3.176V7.548c0-.926.258-1.56 1.587-1.56h1.684v-2.86A22.108 22.108 0 0 0 14.201 3c-2.444 0-4.122 1.492-4.122 4.231v2.355H7.332v3.21h2.753v8.201h3.312Z"/></symbol><symbol viewBox="0 0 21 21" id="fullscreen" xmlns="http://www.w3.org/2000/svg"><g clip-path="url(#ia)"><path fill-rule="evenodd" clip-rule="evenodd" d="M1.83.083C.949.323.234 1.068.054 1.937.015 2.117.002 3.08.01 4.887c.015 2.62.018 2.686.12 2.823.198.264.36.347.679.347.319 0 .48-.083.678-.347.101-.136.105-.212.13-2.858.024-2.647.027-2.723.129-2.859.057-.076.166-.186.243-.243.136-.101.211-.105 2.858-.13 2.647-.024 2.723-.027 2.858-.129.265-.197.348-.359.348-.678 0-.32-.083-.48-.348-.678C7.568.033 7.505.03 4.83.02c-2.231-.008-2.784.003-3 .062ZM13.4.076c-.591.258-.625 1.131-.055 1.458.08.045.809.068 2.818.087 2.638.024 2.713.028 2.849.13.076.056.186.166.243.243.102.135.105.21.13 2.858.024 2.646.028 2.722.129 2.858.198.264.36.347.678.347.32 0 .48-.083.679-.347.101-.137.104-.203.118-2.823.01-1.807-.005-2.77-.042-2.95-.183-.88-.902-1.623-1.8-1.856-.402-.105-5.507-.11-5.747-.005ZM.48 12.996a.866.866 0 0 0-.426.453C.018 13.543 0 14.483 0 16.228c0 2.857.006 2.928.283 3.476.297.586.991 1.112 1.649 1.248.18.038 1.143.051 2.95.042 2.62-.014 2.686-.016 2.822-.118.265-.198.348-.36.348-.678 0-.32-.083-.48-.348-.679-.135-.101-.211-.104-2.858-.129-2.647-.025-2.722-.028-2.858-.13a1.445 1.445 0 0 1-.243-.243c-.102-.135-.105-.211-.13-2.858-.024-2.647-.028-2.722-.129-2.858a1.406 1.406 0 0 0-.236-.238c-.167-.125-.57-.16-.77-.066Zm19.41-.014a1.043 1.043 0 0 0-.422.376c-.041.071-.066.89-.083 2.81-.025 2.638-.028 2.714-.13 2.85a1.448 1.448 0 0 1-.243.243c-.136.101-.211.104-2.858.129-2.647.025-2.723.028-2.858.13-.265.197-.348.358-.348.678 0 .319.083.48.348.678.136.102.202.104 2.822.118 1.807.01 2.77-.004 2.95-.042.904-.187 1.692-.98 1.881-1.889.035-.167.049-1.194.04-2.94-.014-2.62-.017-2.686-.118-2.822a1.41 1.41 0 0 0-.236-.238c-.154-.114-.56-.158-.745-.08Z"/></g><defs><clipPath id="ia"><path d="M0 0h21v21H0z"/></clipPath></defs></symbol><symbol viewBox="0 0 24 24" id="instagram" xmlns="http://www.w3.org/2000/svg"><path d="M11.999 7.377a4.624 4.624 0 1 0 0 9.248 4.624 4.624 0 0 0 0-9.248Zm0 7.627a3.004 3.004 0 1 1 0-6.008 3.004 3.004 0 0 1 0 6.008Zm4.807-6.719a1.078 1.078 0 1 0 0-2.156 1.078 1.078 0 0 0 0 2.156Z"/><path d="M20.533 6.11A4.605 4.605 0 0 0 17.9 3.48a6.607 6.607 0 0 0-2.186-.42c-.963-.042-1.268-.054-3.71-.054s-2.755 0-3.71.054a6.554 6.554 0 0 0-2.184.42 4.6 4.6 0 0 0-2.633 2.63 6.585 6.585 0 0 0-.419 2.186c-.043.962-.056 1.267-.056 3.71 0 2.442 0 2.753.056 3.71.015.748.156 1.486.419 2.187a4.61 4.61 0 0 0 2.634 2.632 6.583 6.583 0 0 0 2.185.45c.963.042 1.268.055 3.71.055s2.755 0 3.71-.055a6.616 6.616 0 0 0 2.186-.42 4.613 4.613 0 0 0 2.633-2.632c.263-.7.404-1.438.419-2.186.043-.962.056-1.267.056-3.71s0-2.753-.056-3.71a6.583 6.583 0 0 0-.421-2.217Zm-1.218 9.533a5.046 5.046 0 0 1-.311 1.688 2.987 2.987 0 0 1-1.712 1.71c-.535.2-1.1.305-1.67.312-.95.044-1.218.055-3.654.055-2.438 0-2.687 0-3.655-.055a4.961 4.961 0 0 1-1.67-.311 2.984 2.984 0 0 1-1.718-1.711 5.08 5.08 0 0 1-.311-1.67c-.043-.95-.053-1.217-.053-3.653 0-2.437 0-2.686.053-3.655a5.038 5.038 0 0 1 .311-1.687c.305-.79.93-1.41 1.719-1.712a5.01 5.01 0 0 1 1.669-.311c.95-.043 1.218-.055 3.655-.055s2.687 0 3.654.055a4.96 4.96 0 0 1 1.67.31 2.99 2.99 0 0 1 1.712 1.713 5.06 5.06 0 0 1 .311 1.669c.043.95.054 1.218.054 3.655 0 2.436 0 2.698-.043 3.654h-.011v-.001Z"/></symbol><symbol viewBox="0 0 20 20" id="kindergarten" xmlns="http://www.w3.org/2000/svg"><g clip-path="url(#ka)"><path fill-rule="evenodd" clip-rule="evenodd" d="m15.469.926-.137.014-.41.08-.41.078-.469.156-.469.156-.41.2-.409.202-.39.262-.392.262-.295.252-.295.253-.302.327-.302.328-.252.352-.25.351-.196.352-.195.351-.155.391-.156.39-.101.35-.101.35-.064.383-.063.382H3.848l-.157.044-.156.043-.16.166-.16.166-.045.178-.044.178.024.13.025.13.072.145.073.144.127.094.127.094.078.034.078.034.725.02.725.022-1.04 3.222-1.039 3.223-.017.047-.018.047-.449-.36-.449-.36-.466-.461-.467-.462-.12-.063-.119-.064-.219-.001-.219-.002-.188.117-.188.117-.091.172-.091.172v.199l.002.199.072.156.071.156.543.528.542.528.43.344.43.343.332.227.332.228.371.225.371.225.529.265.529.266.428.174.428.174.488.158.489.157.312.078.313.078.41.08.41.08.469.069.469.068 1.21.001 1.211.001.371-.05.372-.051.625-.12.625-.12.514-.15.515-.151.492-.181.492-.181.653-.322.654-.322.429-.263.43-.263.385-.275.386-.276.357-.294.357-.295.502-.491.503-.492.073-.156.072-.156.001-.2.001-.198-.09-.172-.092-.172-.188-.117-.188-.117-.22.002-.218.001-.12.064-.12.064-.451.446-.452.447-.463.378-.463.377-.018-.05-.018-.05-1.04-3.223L14.82 8.77l1.955-.02 1.956-.02.12-.066.122-.066.119-.136.119-.135.047-.145.048-.144-.02-.162-.019-.161-1.141-3.203-1.141-3.203-.093-.123-.093-.123-.17-.082-.17-.083-.426.007-.428.006-.136.015Zm1.076 3.889.822 2.314-1.935.02-1.936.019-.132.072-.133.072-.095.103-.096.104-.055.132-.055.132v.303l1.293 4.014 1.293 4.013.017.028.017.029-.421.21-.422.21-.382.15-.381.149-.034-.036-.033-.037-.457-1.425-.458-1.426-.096-.127-.097-.128-.164-.087-.164-.088H7.56l-.164.088-.164.087-.096.127-.097.128-.457 1.426-.458 1.425-.033.036-.033.036-.284-.108-.285-.109-.498-.236-.498-.237-.001-.042-.002-.043 1.183-3.681L6.855 8.75h3.286l.206-.102.205-.103.101-.153.102-.153.05-.575.051-.574.084-.371.084-.371.152-.393.152-.392.217-.368.218-.369.222-.274.221-.275.253-.246.252-.247.275-.206.276-.207.312-.182.313-.182.351-.135.352-.134.232-.065.233-.066.275-.05.275-.05.06-.003.058-.003.822 2.314ZM12.02 16.22l.354 1.103-.005.007-.006.006-.53.08-.529.082-.652.04-.652.042-.648-.041-.647-.04-.378-.058-.378-.058-.161-.03-.162-.03.355-1.103.355-1.104h3.329l.355 1.104Z"/></g><defs><clipPath id="ka"><path d="M0 0h20v20H0z"/></clipPath></defs></symbol><symbol viewBox="0 0 20 20" id="login" xmlns="http://www.w3.org/2000/svg"><path fill-rule="evenodd" clip-rule="evenodd" d="M9.327 2.01c-1.69.176-3.146.77-4.39 1.794-1.57 1.292-2.565 3.044-2.878 5.072-.079.507-.079 1.746 0 2.253.23 1.483.817 2.812 1.74 3.934a8.066 8.066 0 0 0 5.074 2.878c.507.079 1.747.079 2.254 0 2.028-.313 3.78-1.307 5.073-2.878.924-1.122 1.512-2.45 1.741-3.934.079-.507.079-1.746 0-2.253-.313-2.028-1.307-3.78-2.879-5.072a8.054 8.054 0 0 0-3.904-1.736c-.316-.048-1.545-.087-1.831-.058Zm1.118 2.437a2.32 2.32 0 0 1 1.886 1.8c.062.275.07.744.017 1.033-.154.856-.813 1.572-1.675 1.82-.36.104-.987.104-1.346 0a2.352 2.352 0 0 1-1.546-1.385 2.327 2.327 0 0 1-.165-.936c.001-.68.284-1.338.758-1.764.55-.494 1.306-.701 2.07-.568Zm-.007 6.307c1.554.135 3.153.724 3.853 1.418.301.298.498.675.498.953 0 .117-.138.315-.53.754-.738.83-1.947 1.52-3.075 1.756a5.803 5.803 0 0 1-5.763-2.132c-.233-.3-.248-.359-.164-.642.228-.766 1.34-1.477 2.927-1.873.903-.224 1.57-.294 2.254-.234Z"/></symbol><symbol viewBox="0 0 512 512" id="phone" xmlns="http://www.w3.org/2000/svg"><!--! Font Awesome Pro 6.2.1 by @fontawesome - https://fontawesome.com License - https://fontawesome.com/license (Commercial License) Copyright 2022 Fonticons, Inc.--><path d="M164.9 24.6c-7.7-18.6-28-28.5-47.4-23.2l-88 24C12.1 30.2 0 46 0 64c0 247.4 200.6 448 448 448 18 0 33.8-12.1 38.6-29.5l24-88c5.3-19.4-4.6-39.7-23.2-47.4l-96-40c-16.3-6.8-35.2-2.1-46.3 11.6L304.7 368c-70.4-33.3-127.4-90.3-160.7-160.7l49.3-40.3c13.7-11.2 18.4-30 11.6-46.3l-40-96z"/></symbol><symbol viewBox="0 0 20 20" id="pin" xmlns="http://www.w3.org/2000/svg"><path fill-rule="evenodd" clip-rule="evenodd" d="m9.157 2.045-.297.045-.328.082-.328.082-.39.152-.392.153-.321.18-.321.18-.288.203-.288.202-.439.439-.438.438-.202.288-.203.288-.18.321-.18.322-.153.39-.153.391-.081.328-.081.328-.047.329-.046.328v.465L4 8.443l.05.333.048.332.062.266.062.265.08.266.08.266.134.343.132.344.197.422.198.422.186.344.187.344.188.312.188.313.312.468.312.467.251.345.251.345.343.438.343.437.252.297.252.297.36.406.36.407.53.539.528.539h.23l.529-.54.53-.538.402-.454.403-.453.396-.484.397-.485.328-.437.329-.438.28-.406.28-.406.214-.344.215-.343.155-.266.155-.266.243-.485.243-.484.145-.34.145-.341.125-.376.126-.375.074-.316.074-.315.05-.332.048-.333V7.98L16 7.514l-.046-.328-.047-.329-.081-.328-.082-.328-.152-.39-.152-.391-.18-.322-.181-.321-.203-.286-.203-.286-.325-.34-.325-.338-.238-.192-.237-.192-.282-.185-.281-.186-.375-.182-.375-.182-.336-.111-.335-.111-.383-.082-.384-.08-.672-.012L9.454 2l-.297.045Zm1.447 3.286.212.047.192.076.193.075.22.13.22.13.285.284.284.284.13.22.13.221.075.193.076.192.053.228.053.228.001.36.002.359-.067.272-.066.272-.094.207-.093.206-.14.21-.138.208-.23.222-.229.222-.185.119-.185.118-.192.087-.192.087-.197.05-.197.052-.251.029-.252.028-.29-.03-.29-.03-.291-.093-.29-.094-.25-.146-.25-.146-.285-.284-.284-.285-.13-.22-.13-.22-.076-.196-.077-.194-.054-.241-.054-.242V7.64l.072-.281.071-.282.086-.19.086-.19.118-.185.118-.185.222-.23.222-.229.21-.138.208-.14.198-.087.197-.088.197-.054.197-.054.194-.027.193-.026.266.015.266.016.212.047Z"/></symbol><symbol viewBox="0 0 20 20" id="search" xmlns="http://www.w3.org/2000/svg"><path fill-rule="evenodd" clip-rule="evenodd" d="M7.9 2.009c-2.579.324-4.768 2.09-5.574 4.498C2.049 7.334 2 7.657 2 8.657c0 .769.013.955.091 1.309.398 1.797 1.397 3.277 2.867 4.249.741.49 1.486.8 2.4.996.588.127 1.948.14 2.503.022.807-.17 1.61-.476 2.217-.844l.254-.154 1.8 1.794c1.684 1.676 1.818 1.8 2.043 1.882 1.1.403 2.14-.635 1.736-1.735-.083-.225-.206-.359-1.883-2.041l-1.795-1.8.153-.253c.37-.608.677-1.414.845-2.216.107-.512.106-1.822-.001-2.398-.502-2.689-2.538-4.77-5.25-5.363-.293-.064-.582-.09-1.162-.1a13.235 13.235 0 0 0-.918.004Zm1.752 2.099a4.675 4.675 0 0 1 3.505 3.36 4.671 4.671 0 0 1-.544 3.642c-.246.4-.804 1.002-1.2 1.295a4.65 4.65 0 0 1-3.943.756c-1.689-.443-2.984-1.794-3.378-3.522-.12-.53-.12-1.435 0-1.965a4.701 4.701 0 0 1 3.996-3.646c.402-.052 1.131-.015 1.564.08Z"/></symbol><symbol viewBox="0 0 20 20" id="tel" xmlns="http://www.w3.org/2000/svg"><path fill-rule="evenodd" clip-rule="evenodd" d="M2.914 2.932c-1.517 1.523-1.143 4.091 1.103 7.557 2.744 4.236 7.784 7.82 10.534 7.49 2.704-.324 4.23-2.553 3.04-4.445-1.59-2.532-3.342-3.135-4.927-1.694-1.68 1.527-3.708.777-5.133-1.896-.704-1.32-.595-1.857.549-2.697 1.354-.993 1.357-1.158.045-3.167-1.474-2.259-3.63-2.734-5.21-1.148Z"/></symbol><symbol viewBox="0 0 16 16" id="telegram" xmlns="http://www.w3.org/2000/svg"><path d="m14.629 3.698-2.012 9.618c-.152.679-.548.848-1.11.528l-3.066-2.29-1.48 1.442c-.163.166-.3.305-.616.305l.22-3.165 5.683-5.204c.247-.223-.054-.347-.384-.123L4.839 9.29l-3.024-.959c-.658-.208-.67-.667.137-.986L13.78 2.727c.548-.208 1.027.124.849.971Z"/></symbol><symbol viewBox="0 0 16 16" id="viber" xmlns="http://www.w3.org/2000/svg"><path d="M8 1.335c-1.071.013-3.374.19-4.662 1.37-.958.948-1.292 2.35-1.331 4.084-.033 1.728-.072 4.973 3.058 5.856v1.346s-.02.538.337.648c.438.14.688-.275 1.105-.72l.778-.879c2.142.178 3.782-.232 3.97-.293.435-.139 2.883-.451 3.283-3.696.41-3.351-.2-5.463-1.301-6.418h-.007c-.332-.306-1.668-1.279-4.652-1.29 0 0-.222-.014-.578-.008Zm.037.942a7.02 7.02 0 0 1 .488.011c2.527.007 3.732.767 4.017 1.023.927.794 1.405 2.697 1.055 5.495-.332 2.713-2.317 2.885-2.685 3.002-.156.05-1.6.406-3.42.289 0 0-1.356 1.634-1.78 2.055-.067.074-.146.095-.196.085-.071-.018-.093-.107-.089-.229l.013-2.233c-2.655-.733-2.498-3.5-2.47-4.946.033-1.446.304-2.628 1.113-3.43 1.088-.982 3.043-1.115 3.953-1.122Zm.2 1.446a.166.166 0 1 0 0 .332 3.136 3.136 0 0 1 2.242.883c.606.588.9 1.378.912 2.411 0 .092.074.167.167.167V7.51a.167.167 0 0 0 .168-.165 3.588 3.588 0 0 0-1.009-2.646c-.66-.645-1.496-.977-2.48-.977Zm-2.198.382a.523.523 0 0 0-.342.067H5.69a2.61 2.61 0 0 0-.637.523 1.003 1.003 0 0 0-.256.525.71.71 0 0 0 .026.302l.01.006c.172.504.396.988.67 1.444a8.48 8.48 0 0 0 1.29 1.762l.015.022.024.017.015.018.017.015c.532.505 1.127.94 1.769 1.295.734.4 1.18.588 1.447.667v.004c.078.024.15.034.221.034.228-.016.444-.109.613-.262a2.53 2.53 0 0 0 .517-.638v-.004c.128-.241.085-.469-.1-.623-.37-.323-.77-.61-1.195-.857-.285-.155-.574-.061-.69.095l-.25.315c-.129.156-.361.134-.361.134l-.007.004C7.093 8.527 6.63 6.772 6.63 6.772s-.022-.239.139-.36l.312-.252c.15-.122.254-.41.094-.695a7.498 7.498 0 0 0-.856-1.194.475.475 0 0 0-.28-.167Zm2.486.495c-.221 0-.221.334.003.334A2.098 2.098 0 0 1 10 5.572 1.94 1.94 0 0 1 10.5 7a.168.168 0 0 0 .167.165l.007.009a.169.169 0 0 0 .167-.167c.015-.662-.191-1.218-.595-1.663C9.84 4.9 9.273 4.65 8.549 4.6h-.024Zm.274.898c-.228-.006-.236.335-.01.341.55.029.816.306.851.877a.166.166 0 0 0 .165.163h.007a.168.168 0 0 0 .16-.178c-.039-.744-.445-1.164-1.166-1.202H8.8Z"/></symbol><symbol viewBox="0 0 24 24" id="vk" xmlns="http://www.w3.org/2000/svg"><path d="M21.579 6.855c.14-.465 0-.806-.662-.806h-2.193c-.558 0-.813.295-.953.619 0 0-1.115 2.719-2.695 4.482-.51.513-.743.675-1.021.675-.139 0-.341-.162-.341-.627V6.855c0-.558-.161-.806-.626-.806H9.642c-.348 0-.558.258-.558.504 0 .528.79.65.871 2.138v3.228c0 .707-.127.836-.407.836-.743 0-2.551-2.73-3.624-5.853-.209-.607-.42-.852-.98-.852H2.752c-.627 0-.752.295-.752.619 0 .582.743 3.462 3.461 7.27 1.812 2.602 4.363 4.012 6.687 4.012 1.393 0 1.565-.313 1.565-.853v-1.966c0-.626.133-.752.574-.752.324 0 .882.164 2.183 1.417 1.486 1.486 1.732 2.153 2.567 2.153h2.192c.626 0 .939-.313.759-.931-.197-.615-.907-1.51-1.849-2.57-.512-.603-1.277-1.253-1.51-1.578-.325-.42-.231-.604 0-.976.001 0 2.672-3.761 2.95-5.04Z"/></symbol><symbol viewBox="0 0 16 16" id="whatsapp" xmlns="http://www.w3.org/2000/svg"><path fill-rule="evenodd" clip-rule="evenodd" d="M12.269 3.755A5.947 5.947 0 0 0 8.035 2 5.994 5.994 0 0 0 2.05 7.985a5.98 5.98 0 0 0 .799 2.992L2 14.077l3.173-.832c.877.477 1.86.728 2.86.728h.002a5.993 5.993 0 0 0 5.533-8.276 5.953 5.953 0 0 0-1.3-1.942Zm-4.234 9.208h-.002c-.89 0-1.765-.24-2.532-.694l-.181-.108-1.883.494.502-1.835-.118-.188a4.965 4.965 0 0 1-.76-2.647 4.982 4.982 0 0 1 6.88-4.597c.604.25 1.152.618 1.613 1.081a4.946 4.946 0 0 1 1.455 3.52 4.982 4.982 0 0 1-4.974 4.974Zm2.729-3.726c-.15-.075-.885-.436-1.022-.486-.137-.05-.236-.075-.336.074-.1.15-.387.486-.474.586-.087.1-.175.112-.324.038-.15-.075-.631-.233-1.203-.742a4.505 4.505 0 0 1-.832-1.036c-.087-.15-.009-.231.066-.306.068-.066.15-.174.224-.262.075-.087.1-.149.15-.249.05-.1.025-.187-.013-.262-.037-.075-.337-.811-.461-1.11-.121-.29-.244-.252-.336-.256a6.418 6.418 0 0 0-.286-.005.55.55 0 0 0-.4.186c-.137.15-.523.512-.523 1.248s.536 1.447.61 1.547c.075.1 1.055 1.61 2.555 2.258.358.154.636.246.853.315.358.114.684.098.942.06.287-.043.885-.362 1.01-.711.124-.35.124-.649.087-.711-.038-.063-.138-.101-.287-.176Z"/></symbol><symbol viewBox="0 0 20 20" id="xls" xmlns="http://www.w3.org/2000/svg"><path d="M4.727 9.453h10.859v6.406H4.727z"/><path fill-rule="evenodd" clip-rule="evenodd" d="m4.473.061-.215.057-.332.162-.332.162-.316.316-.316.316-.14.254-.14.254-.09.293-.092.293v15.625l.07.254.07.254.144.293.144.293.333.334.333.334.274.142.274.141.291.081.292.081h10.513l.232-.059.233-.059.332-.161.332-.162.333-.336.333-.336.144-.293.144-.293.07-.235.07-.234.01-5.967.01-5.968-.42-.44-.42-.442-2.416-2.507L11.809 0 8.25.003 4.686.005l-.214.056Zm9.062 10.898.253.06.16.094.16.094.147.162.147.163.057.137.057.136-.012.012-.012.011-.385.16-.386.16h-.02l-.049-.117-.048-.117-.13-.113-.128-.113-.159-.027-.159-.027-.147.072-.147.071-.012.126-.012.127.123.074.123.075.353.082.353.083.25.123.25.123.117.16.118.16.057.192.058.193v.303l-.044.175-.044.175-.173.192-.173.192-.212.1-.213.101-.28.035-.278.035-.232-.037-.233-.038-.174-.081-.173-.082-.191-.171-.191-.172-.078-.165-.078-.166-.024-.12-.025-.12.347-.105.347-.104h.084l.044.127.043.127.071.085.07.085.134.08.133.082h.327l.098-.037.098-.037.067-.103.067-.102-.036-.104-.036-.103-.13-.087-.13-.087-.22-.062-.222-.062-.226-.082-.226-.082-.175-.116-.176-.116-.1-.172-.101-.171-.021-.234-.021-.233.052-.185.051-.186.165-.164.164-.164.12-.062.12-.063.207-.055.206-.055.195-.002.195-.002.254.06Zm-6.73.408.245.41.03.01.03.01.251-.43.252-.43h.956l-.505.847-.504.846.074.12.073.121.438.742.438.742.055.088.055.088-.48-.001-.479-.002-.207-.361-.208-.361-.119-.19-.118-.191-.305.518-.304.518-.037.036-.036.037-.456-.011-.456-.011.546-.918.547-.918v-.053l.001-.053-.437-.728-.436-.729-.057-.089-.057-.089.482.011.481.011.246.41Zm3.175.996v1.426h1.563v.742H9.082v-3.593h.898v1.425Z"/><path d="M17.441 5.879 11.816 0v5.879h5.625Z"/></symbol></svg>