<svg width="25" height="25" viewBox="0 0 25 25" fill="none" xmlns="http://www.w3.org/2000/svg">
<path fill-rule="evenodd" clip-rule="evenodd" d="M20.0785 5.14691L19.7974 5.29381L16.4395 7.04777L13.0815 8.80173L9.13456 10.8614L5.18758 12.9211L5.10742 13.0249L5.0273 13.1287L5.01365 13.2931L5 13.4576L5.04735 13.5486L5.09468 13.6396L5.17133 13.7112L5.24799 13.7828L7.38338 14.5128L9.51877 15.2428L9.81642 14.986L10.1141 14.7291L14.1123 11.3138L18.1106 7.89841L18.2012 7.81713L18.2918 7.73588L17.8538 8.2669L17.4158 8.79792L14.4601 12.3583L11.5045 15.9186L11.5589 15.9385L11.6134 15.9585L15.098 17.1496L18.5825 18.3407H18.6725H18.7625L18.8961 18.276L19.0298 18.2113L19.0944 18.1066L19.1592 18.0019L20.0796 11.8109L21 5.61995V5.49566V5.37134L20.952 5.2701L20.9039 5.16886L20.8041 5.09505L20.7042 5.02124L20.532 5.01062L20.3597 5L20.0785 5.14691ZM10.8236 18.3641L10.8325 19.9806L10.904 20.0955L10.9754 20.2104L11.1091 20.2751L11.2427 20.3398L11.35 20.3393L11.4572 20.3388L11.5787 20.269L11.7002 20.1993L12.6299 18.9342L13.5597 17.6691L13.5521 17.6611L13.5445 17.6531L12.2242 17.2004L10.9038 16.7476H10.8593H10.8147L10.8236 18.3641Z" fill="#ADACAC"/>
</svg>
