<svg width="20" height="20" viewBox="0 0 20 20" fill="none" xmlns="http://www.w3.org/2000/svg">
<rect x="4.72656" y="9.45312" width="10.8594" height="6.40625" fill="white"/>
<path fill-rule="evenodd" clip-rule="evenodd" d="M4.47266 0.0613672L4.25781 0.117578L3.92578 0.279609L3.59375 0.441641L3.27781 0.75793L2.96187 1.07422L2.82203 1.32812L2.68215 1.58203L2.59109 1.875L2.5 2.16797V9.98047V17.793L2.56992 18.0469L2.63988 18.3008L2.78379 18.5938L2.92766 18.8867L3.2607 19.2211L3.59375 19.5554L3.86781 19.6969L4.14191 19.8384L4.43344 19.9192L4.725 20H9.98125H15.2375L15.4703 19.941L15.7031 19.882L16.0352 19.7207L16.3672 19.5593L16.7002 19.223L17.0333 18.8867L17.177 18.5938L17.3207 18.3008L17.3905 18.0664L17.4604 17.832L17.4712 11.8646L17.4819 5.89727L17.0613 5.45613L16.6406 5.01496L14.2249 2.5075L11.8091 0L8.24832 0.00257812L4.6875 0.00515625L4.47266 0.0613672ZM13.5346 10.9593L13.788 11.019L13.948 11.1128L14.1081 11.2066L14.2551 11.3693L14.4021 11.5321L14.4592 11.6687L14.5163 11.8053L14.5043 11.8168L14.4922 11.8283L14.1068 11.9884L13.7214 12.1484H13.7111H13.7009L13.6523 12.0311L13.6037 11.9137L13.4749 11.8007L13.3462 11.6876L13.1871 11.6607L13.028 11.6339L12.8812 11.7056L12.7344 11.7773L12.7222 11.9034L12.71 12.0295L12.8329 12.1042L12.9557 12.1789L13.3088 12.2612L13.6619 12.3436L13.9119 12.4666L14.1619 12.5897L14.2795 12.7496L14.3971 12.9095L14.4544 13.1025L14.5117 13.2954V13.4468V13.5982L14.4677 13.773L14.4237 13.9479L14.251 14.14L14.0783 14.332L13.8655 14.4327L13.6528 14.5333L13.3739 14.5684L13.0951 14.6034L12.8625 14.5659L12.6299 14.5284L12.4564 14.4469L12.2828 14.3653L12.0917 14.1935L11.9007 14.0217L11.8229 13.8566L11.7451 13.6914L11.7205 13.571L11.6959 13.4506L12.0431 13.3464L12.3903 13.2422H12.4323H12.4744L12.5178 13.3691L12.5611 13.4961L12.632 13.5809L12.7029 13.6657L12.8358 13.7468L12.9688 13.8279L13.1322 13.828L13.2957 13.8281L13.3939 13.7908L13.492 13.7535L13.5591 13.6511L13.6263 13.5486L13.59 13.4454L13.5537 13.3423L13.4243 13.2551L13.2949 13.1679L13.0732 13.1059L12.8516 13.0439L12.6258 12.9621L12.4001 12.8802L12.2246 12.764L12.0491 12.6478L11.9486 12.4762L11.848 12.3047L11.8269 12.0712L11.8057 11.8378L11.8576 11.6526L11.9094 11.4674L12.0736 11.3033L12.2377 11.1392L12.3583 11.0768L12.4789 11.0144L12.6848 10.959L12.8906 10.9036L13.0859 10.9016L13.2812 10.8996L13.5346 10.9593ZM6.80426 11.3671L7.0502 11.7771L7.08 11.7871L7.10977 11.797L7.36148 11.3673L7.61316 10.9375H8.0909H8.56863L8.06437 11.7838L7.56012 12.63L7.63363 12.7505L7.70711 12.8711L8.14516 13.6133L8.5832 14.3555L8.6382 14.4434L8.6932 14.5312L8.21379 14.5299L7.73438 14.5285L7.52656 14.167L7.31871 13.8055L7.20031 13.6152L7.08191 13.425L6.77727 13.943L6.47266 14.4609L6.43621 14.4974L6.39977 14.5338L5.94391 14.5228L5.48801 14.5117L6.03434 13.5938L6.58066 12.6758L6.58133 12.6231L6.58203 12.5705L6.14547 11.8419L5.70895 11.1133L5.65188 11.0241L5.59484 10.935L6.07656 10.946L6.55828 10.957L6.80426 11.3671ZM9.98047 12.3633V13.7891H10.7617H11.543V14.1602V14.5312H10.3125H9.08203V12.7344V10.9375H9.53125H9.98047V12.3633Z" fill="#078922"/>
<path d="M17.4414 5.87891L11.8164 0V5.87891H17.4414Z" fill="#05A14F"/>
</svg>
