<svg width="20" height="20" viewBox="0 0 20 20" fill="none" xmlns="http://www.w3.org/2000/svg">
<g clip-path="url(#clip0_399_1830)">
<path fill-rule="evenodd" clip-rule="evenodd" d="M5.69348 1.10719L0.000195312 2.20703L0.000117188 10L0 17.793L5.75195 18.8984L11.5039 20.0038L11.5332 20.0019L11.5625 20V10V0L11.4746 0.00367187L11.3867 0.00734375L5.69348 1.10719ZM12.3047 3.45703V4.60938H13.457H14.6094V5.37109V6.13281H13.457H12.3047V6.91406V7.69531H13.457H14.6094V8.45703V9.21875H13.457H12.3047V10V10.7812H13.457H14.6094V11.543V12.3047H13.457H12.3047V13.0859V13.8672H13.457H14.6094V14.6094V15.3516H13.457H12.3047V16.5234V17.6953H15.8997H19.4947L19.625 17.6409L19.7553 17.5864L19.8679 17.4388L19.9805 17.2913V10V2.70875L19.8679 2.56117L19.7553 2.41359L19.625 2.35914L19.4947 2.30469H15.8997H12.3047V3.45703ZM18.4375 5.39062V6.13281H16.9141H15.3906V5.39062V4.64844H16.9141H18.4375V5.39062ZM5.08621 7.36328L5.66488 8.57422L5.75027 8.83789L5.8357 9.10156H5.86309H5.89051L5.99832 8.79883L6.10609 8.49609L6.73469 7.31484L7.36328 6.13363L8.31473 6.1332L9.26617 6.13281L9.24652 6.18406L9.22684 6.23531L8.10379 8.08836L6.9807 9.94141L6.98145 9.98047L6.98219 10.0195L8.14355 11.9141L9.30496 13.8086L9.32465 13.8574L9.3443 13.9062H8.3275H7.31066L6.61875 12.5938L5.9268 11.2812L5.86816 11.0484L5.80949 10.8155L5.78148 10.8472L5.75348 10.8789L5.68687 11.0938L5.62031 11.3086L4.9293 12.6072L4.23828 13.9059L3.21059 13.9061L2.18289 13.9062L2.21199 13.8574L2.24109 13.8086L3.4107 11.9727L4.58031 10.1367L4.61977 10.0748L4.65922 10.0129L3.54055 8.09516L2.42188 6.1775V6.15453V6.13152L3.46473 6.14195L4.50754 6.15234L5.08621 7.36328ZM18.4375 8.45703V9.21875H16.9141H15.3906V8.45703V7.69531H16.9141H18.4375V8.45703ZM18.4375 11.543V12.3047H16.9141H15.3906V11.543V10.7812H16.9141H18.4375V11.543ZM18.4375 14.6094V15.3516H16.9141H15.3906V14.6094V13.8672H16.9141H18.4375V14.6094Z" fill="#05A14F"/>
</g>
<defs>
<clipPath id="clip0_399_1830">
<rect width="20" height="20" fill="white"/>
</clipPath>
</defs>
</svg>
