<svg width="20" height="20" viewBox="0 0 20 20" fill="none" xmlns="http://www.w3.org/2000/svg">
<path fill-rule="evenodd" clip-rule="evenodd" d="M2.89066 1.8827L2.79301 1.9232L2.70137 2.00875L2.60977 2.0943L2.55488 2.19977L2.5 2.30527V3.56102V4.8168L1.45508 4.7907L0.410156 4.76461L0.282852 4.84512L0.155547 4.92563L0.0779297 5.05293L0.000273438 5.18023L0.00015625 10.7082L0 16.2361L0.0729688 16.3723L0.145938 16.5084L0.317109 16.5938L0.488281 16.6793L1.66016 16.7419L2.83203 16.8046L3.59375 16.8629L4.35547 16.9211L5.0277 16.9976L5.69992 17.0741L6.18453 17.1518L6.66914 17.2295L7.23988 17.3482L7.81063 17.4669L8.36258 17.6253L8.91449 17.7836L9.41773 17.9761L9.92102 18.1685H9.99918H10.0774L10.4782 18.0165L10.8789 17.8645L11.3786 17.705L11.8783 17.5456L12.4919 17.409L13.1055 17.2723L13.7109 17.1728L14.3164 17.0732L14.9805 16.9972L15.6445 16.9211L16.4062 16.863L17.168 16.8049L18.3398 16.7423L19.5117 16.6796L19.6829 16.594L19.8541 16.5084L19.927 16.3723L20 16.2361V10.7042V5.17227L19.9116 5.03953L19.8232 4.9068L19.6687 4.83113L19.5142 4.75551L18.5071 4.75371L17.5 4.75195V3.55262V2.35328L17.4584 2.24332L17.4169 2.13336L17.3153 2.02684L17.2137 1.92031L17.0858 1.87812L16.958 1.83594L16.5552 1.87973L16.1523 1.92352L15.6596 2.01906L15.1668 2.11461L14.6828 2.24723L14.1988 2.37988L13.6912 2.56195L13.1836 2.74402L12.5586 3.05008L11.9336 3.35617L11.582 3.57766L11.2305 3.79914L10.9378 4.02094L10.6452 4.24273L10.3226 4.55086L10 4.85898L9.67668 4.54859L9.3534 4.2382L9.06145 4.01895L8.76953 3.79969L8.4223 3.58207L8.07508 3.36449L7.61922 3.13211L7.1634 2.89969L6.73602 2.7257L6.30859 2.55172L5.86481 2.40926L5.42098 2.2668L4.95688 2.15348L4.49273 2.04012L4.01395 1.96203L3.53516 1.88395L3.26172 1.86309L2.98828 1.84223L2.89066 1.8827ZM4.23504 3.2257L4.71039 3.32195L5.22543 3.47687L5.74047 3.6318L6.20031 3.8141L6.66016 3.99641L7.14844 4.24941L7.63672 4.50246L7.96644 4.72184L8.29617 4.94121L8.63121 5.22008L8.96625 5.49891L9.18996 5.74973L9.41371 6.00055L9.41391 11.0348L9.41406 16.0691L9.30148 15.9762L9.18887 15.8834L8.86203 15.6178L8.53516 15.3522L8.14453 15.0854L7.75391 14.8186L7.27914 14.5466L6.80438 14.2746L6.32211 14.0577L5.83984 13.8409L5.35156 13.6643L4.86328 13.4877L4.29688 13.3328L3.73047 13.1778L3.72055 8.15363L3.71062 3.12945H3.7352H3.75973L4.23504 3.2257ZM16.2795 8.15363L16.2695 13.1778L15.7031 13.3328L15.1367 13.4877L14.6484 13.6642L14.1602 13.8407L13.6915 14.052L13.2229 14.2633L12.7931 14.503L12.3633 14.7428L11.9141 15.0473L11.4648 15.3518L11.138 15.6176L10.8111 15.8834L10.6985 15.9762L10.5859 16.0691V11.0343V5.99945L10.8206 5.73949L11.0552 5.47949L11.3616 5.22395L11.668 4.9684L12.0545 4.71L12.441 4.4516L13.0271 4.16438L13.6133 3.87715L13.9844 3.74074L14.3555 3.60434L14.8203 3.46348L15.2851 3.32262L15.7382 3.22859L16.1914 3.13457L16.2404 3.13199L16.2894 3.12945L16.2795 8.15363ZM18.8281 10.7271V15.5123H18.7546H18.681L17.6706 15.5717L16.6602 15.6311L15.957 15.6899L15.2539 15.7487L14.6094 15.8263L13.9648 15.9039L13.3789 16.0032L12.793 16.1026L12.6255 16.1445L12.4579 16.1864L12.4384 16.1668L12.4189 16.1473L12.7817 15.913L13.1445 15.6789L13.5547 15.4608L13.9648 15.2427L14.4141 15.0505L14.8633 14.8582L15.4285 14.6739L15.9936 14.4895L16.5693 14.3584L17.145 14.2273L17.2466 14.1607L17.3482 14.0941L17.4241 13.9454L17.5 13.7966V9.89105V5.98551L17.666 5.97055L17.832 5.95559L18.3301 5.94879L18.8281 5.94195V10.7271ZM2.19352 6.02008H2.5V9.91066V13.8013L2.5634 13.9349L2.62684 14.0685L2.73707 14.147L2.84734 14.2255L3.42562 14.3584L4.00391 14.4912L4.375 14.6067L4.74609 14.7222L5.13672 14.8664L5.52734 15.0107L6.15234 15.3189L6.77734 15.6271L7.17953 15.8869L7.58176 16.1467L7.56875 16.1596L7.55574 16.1727L6.95172 16.0613L6.34766 15.95L5.72266 15.8685L5.09766 15.787L4.49219 15.7287L3.88672 15.6704L2.96875 15.6127L2.05078 15.555L1.61133 15.5294L1.17188 15.5037V10.7365V5.96934L1.52945 5.99469L1.88699 6.02008H2.19352ZM5.40004 6.56391L5.27273 6.64437L5.19512 6.77168L5.11746 6.89898V7.07477V7.25055L5.19359 7.37539L5.26973 7.5002L5.36648 7.56359L5.46324 7.62703L5.82734 7.71727L6.19141 7.80754L6.44531 7.91371L6.69922 8.01988L7.04387 8.21789L7.38855 8.4159H7.55609H7.72363L7.86668 8.3275L8.00969 8.2391L8.07422 8.1159L8.13875 7.99273L8.13937 7.8118L8.14004 7.63086L8.07266 7.52809L8.00531 7.42527L7.82102 7.28945L7.63672 7.15363L7.28434 6.97937L6.93191 6.80512L6.50742 6.66309L6.08293 6.52105L5.80516 6.50227L5.52734 6.48348L5.40004 6.56391ZM13.7974 6.5677L13.5128 6.64227L13.1529 6.78605L12.793 6.92988L12.5056 7.09023L12.2182 7.25055L12.067 7.37977L11.9159 7.50902L11.8744 7.66297L11.8329 7.81695L11.8769 7.98023L11.9209 8.14352L12.0382 8.25313L12.1555 8.36273L12.3006 8.4018L12.4457 8.44086L12.5738 8.40414L12.7019 8.36738L13.0013 8.19262L13.3008 8.01785L13.6083 7.89637L13.9159 7.77488L14.2224 7.70352L14.529 7.63211L14.6296 7.56617L14.7303 7.5002L14.8064 7.37539L14.8825 7.25055V7.07477V6.89898L14.8049 6.77168L14.7273 6.64437L14.6 6.56676L14.4727 6.4891L14.2773 6.49113L14.082 6.49312L13.7974 6.5677ZM5.40004 9.88441L5.27273 9.96469L5.19512 10.092L5.11746 10.2193V10.3951V10.5709L5.19359 10.6957L5.26973 10.8205L5.3643 10.8825L5.45887 10.9445L5.78605 11.0353L6.11328 11.1262L6.36719 11.2332L6.62109 11.3403L6.97266 11.5406L7.32422 11.741L7.52645 11.7418L7.72863 11.7427L7.83652 11.6622L7.94438 11.5816L8.02492 11.4738L8.10547 11.3659V11.1568V10.9477L8.02359 10.8374L7.94172 10.7271L7.78922 10.622L7.63672 10.5169L7.20645 10.3021L6.77617 10.0872L6.40566 9.96242L6.03516 9.83762L5.78125 9.8209L5.52734 9.80418L5.40004 9.88441ZM13.7672 9.90645L13.4523 9.99961L13.1422 10.136L12.832 10.2723L12.5 10.4548L12.168 10.6372L12.0597 10.7391L11.9514 10.8411L11.9081 10.9854L11.8649 11.1297L11.8914 11.2711L11.9179 11.4124L12.0351 11.5459L12.1523 11.6794L12.2913 11.7252L12.4303 11.7711L12.5577 11.7505L12.685 11.7298L13.032 11.535L13.3789 11.3403L13.6328 11.2332L13.8867 11.1262L14.2139 11.0353L14.5411 10.9445L14.6357 10.8825L14.7303 10.8205L14.8064 10.6957L14.8825 10.5709V10.3951V10.2193L14.8049 10.092L14.7273 9.96469L14.6 9.88707L14.4727 9.80941L14.2773 9.81137L14.082 9.81328L13.7672 9.90645Z" fill="#333333"/>
</svg>
