<svg width="20" height="20" viewBox="0 0 20 20" fill="none" xmlns="http://www.w3.org/2000/svg">
<path fill-rule="evenodd" clip-rule="evenodd" d="M2 2.79634V3.59269L2.79841 3.60103L3.59684 3.60938L5.03519 6.64522L6.47353 9.68103L5.91872 10.6296C5.32363 11.647 5.24112 11.8381 5.20112 12.2916C5.13697 13.0193 5.67409 13.7634 6.39928 13.9513C6.5655 13.9944 7.15281 14 11.4967 14H16.4062V13.2031V12.4062L11.7734 12.4058C8.11434 12.4054 7.12422 12.3971 7.0625 12.366C6.91422 12.2914 6.94347 12.1919 7.32169 11.4844L7.6725 10.8281L10.7972 10.8121C14.2339 10.7946 14.0273 10.8066 14.3947 10.603C14.7396 10.4118 14.7567 10.3848 16.3196 7.56056C17.1227 6.10928 17.8293 4.845 17.8899 4.75106C17.9852 4.60319 17.9999 4.55491 17.9993 4.39169C17.9982 4.07919 17.8464 3.82159 17.5781 3.67681L17.4531 3.60938L11.4062 3.60034L5.35938 3.59128L5.00372 2.79566L4.64806 2H3.32403H2V2.79634ZM6.54688 14.8151C6.28687 14.8531 5.89284 15.0538 5.69409 15.2494C5.04156 15.8918 5.03013 16.8831 5.66791 17.516C5.99719 17.8427 6.36603 18 6.80263 18C7.24413 18 7.66141 17.813 7.97197 17.4758C8.56144 16.8359 8.54434 15.8931 7.93213 15.2809C7.55681 14.9056 7.06322 14.7396 6.54688 14.8151ZM14.5469 14.8151C14.2869 14.8531 13.8928 15.0538 13.6941 15.2494C13.0416 15.8918 13.0301 16.8831 13.6679 17.516C13.9972 17.8427 14.366 18 14.8026 18C15.2441 18 15.6614 17.813 15.972 17.4758C16.5614 16.8359 16.5443 15.8931 15.9321 15.2809C15.5568 14.9056 15.0632 14.7396 14.5469 14.8151Z" fill="white"/>
</svg>
