<svg width="20" height="20" viewBox="0 0 20 20" fill="none" xmlns="http://www.w3.org/2000/svg">
<path fill-rule="evenodd" clip-rule="evenodd" d="M7.17195 0.911719L7.05477 0.964063L6.94551 1.06672L6.83625 1.16934L6.76082 1.33551L6.68539 1.50168L6.68453 2.42941L6.68367 3.35715H4.90477H3.12586L2.97496 3.43414L2.82402 3.51113L2.70555 3.65488L2.58707 3.79859L2.54355 3.98008L2.5 4.16152L2.53734 4.32766L2.57465 4.49379L2.66277 4.62234L2.75086 4.7509L2.87934 4.83895L3.00777 4.92695L3.15629 4.96145L3.30477 4.9959H10.004H16.7032L16.8517 4.96145L17.0002 4.92695L17.1286 4.83895L17.2571 4.7509L17.3452 4.62234L17.4333 4.49379L17.4706 4.32766L17.508 4.16152L17.4644 3.98008L17.4209 3.79859L17.3024 3.65488L17.1839 3.51113L17.033 3.43414L16.8821 3.35715H15.1032H13.3243V2.4273V1.4975L13.2254 1.29891L13.1264 1.10035L12.965 0.988516L12.8037 0.87668L10.0464 0.868047L7.28914 0.859375L7.17195 0.911719ZM11.6837 2.92746V3.35715H10.004H8.3243V2.92746V2.49777H10.004H11.6837V2.92746ZM3.78941 5.94805L3.61727 6.03895L3.50008 6.20531L3.38289 6.37168L3.3727 11.3296L3.36246 16.2876L3.41848 16.5562L3.47445 16.8247L3.58098 17.0909L3.68746 17.3571L3.82465 17.5935L3.9618 17.8298L4.31688 18.1849L4.67195 18.54L4.90828 18.6771L5.14461 18.8143L5.41051 18.9207L5.67641 19.027L5.9359 19.082L6.19539 19.137H10.004H13.8126L14.0721 19.082L14.3316 19.027L14.5975 18.9207L14.8634 18.8143L15.0997 18.6771L15.336 18.54L15.6911 18.1849L16.0462 17.8298L16.1833 17.5935L16.3205 17.3571L16.4269 17.0912L16.5332 16.8254L16.5882 16.5659L16.6432 16.3064L16.6439 11.3809L16.6446 6.45539L16.5537 6.2832L16.4628 6.11105L16.299 5.99566L16.1352 5.88027L15.8886 5.86457L15.6421 5.84887L15.483 5.93L15.324 6.01113L15.2065 6.15371L15.089 6.29625L15.0465 6.46512L15.004 6.63395V11.3947V16.1555L14.9415 16.3658L14.8791 16.5761L14.7529 16.7733L14.6266 16.9704L14.4754 17.1031L14.3241 17.2359L14.0683 17.357L13.8126 17.4782L10.085 17.4888L6.35742 17.4993L6.14289 17.437L5.92836 17.3746L5.72984 17.2459L5.53133 17.1173L5.42863 17.0048L5.3259 16.8923L5.22684 16.7323L5.12777 16.5723L5.06586 16.3639L5.00398 16.1555V11.3947V6.63395L4.96148 6.46512L4.91895 6.29625L4.80145 6.15371L4.68395 6.01113L4.53301 5.93414L4.38211 5.85715H4.17184H3.9616L3.78941 5.94805ZM8.13855 7.53594L8.01137 7.56613L7.88109 7.65539L7.75086 7.74465L7.66281 7.87313L7.57481 8.00156L7.54031 8.15008L7.50586 8.29855V11.2478V14.197L7.54031 14.3455L7.57481 14.494L7.66281 14.6224L7.75086 14.7509L7.87941 14.839L8.00797 14.9271L8.1741 14.9644L8.34023 15.0018L8.52168 14.9582L8.70316 14.9147L8.85078 14.793L8.99844 14.6712L9.07066 14.5123L9.14289 14.3532V11.2478V8.1423L9.07066 7.98328L8.99844 7.8243L8.85195 7.70355L8.70551 7.58281L8.53664 7.54027L8.36781 7.49777L8.31676 7.50176L8.2657 7.50578L8.13855 7.53594ZM11.4387 7.54812L11.2914 7.59543L11.1554 7.70461L11.0194 7.81375L10.9414 7.96672L10.8634 8.11965V11.2478V14.3759L10.9404 14.5268L11.0173 14.6777L11.1611 14.7962L11.3048 14.9147L11.4863 14.9582L11.6677 15.0018L11.8339 14.9644L12 14.9271L12.1314 14.8371L12.2627 14.7471L12.3616 14.5946L12.4604 14.4423L12.4844 14.2415L12.5084 14.0407L12.4964 11.072L12.4845 8.10324L12.4197 7.98523L12.355 7.86723L12.2448 7.75699L12.1345 7.64676L12.0355 7.59559L11.9366 7.54441L11.7613 7.52258L11.586 7.50078L11.4387 7.54812Z" fill="#FD3230"/>
</svg>
