<svg width="20" height="20" viewBox="0 0 20 20" fill="none" xmlns="http://www.w3.org/2000/svg">
<g clip-path="url(#clip0_747_1809)">
<path fill-rule="evenodd" clip-rule="evenodd" d="M9.39158 4.103C6.10162 4.29258 2.99649 6.05479 0.520922 9.13721C-0.12546 9.94203 -0.124955 10.085 0.527225 10.8993C2.99769 13.9837 6.11353 15.7449 9.41901 15.9253C13.1602 16.1295 16.6952 14.3619 19.48 10.8944C20.1264 10.0896 20.1259 9.94658 19.4737 9.13234C17.669 6.87919 15.522 5.33114 13.1476 4.57121C12.41 4.33514 11.5164 4.16265 10.8176 4.12137C10.0549 4.07635 9.89046 4.07425 9.39158 4.103ZM10.8235 5.9146C11.9418 6.1251 13.0164 6.88577 13.5984 7.87888C14.3008 9.07736 14.3749 10.5271 13.7964 11.7521C13.5706 12.2302 13.3549 12.5411 12.9833 12.9241C10.9033 15.0676 7.35956 14.4122 6.15326 11.661C5.71793 10.6682 5.70972 9.45538 6.13135 8.42047C6.54154 7.41363 7.43353 6.53203 8.44672 6.13215C9.21723 5.82806 9.98851 5.75744 10.8235 5.9146ZM9.59189 7.79635C8.95913 7.9332 8.39905 8.32791 8.07831 8.86308C7.84252 9.25651 7.76341 9.54861 7.76614 10.0158C7.76882 10.4666 7.80894 10.6485 7.98913 11.0265C8.15474 11.3738 8.63835 11.8559 8.99294 12.0271C10.2416 12.6301 11.694 12.0168 12.1434 10.6967C12.2719 10.3191 12.2755 9.72709 12.1516 9.33324C11.8688 8.43436 11.0433 7.80802 10.0977 7.77491C9.90512 7.76818 9.6775 7.77783 9.59189 7.79635Z" fill="#E0DEDE"/>
</g>
<defs>
<clipPath id="clip0_747_1809">
<rect width="20" height="11.9066" fill="white" transform="translate(0 4.0625)"/>
</clipPath>
</defs>
</svg>
