<svg width="21" height="21" viewBox="0 0 21 21" fill="none" xmlns="http://www.w3.org/2000/svg">
<g clip-path="url(#clip0_747_5929)">
<path fill-rule="evenodd" clip-rule="evenodd" d="M1.83068 0.0825467C0.947675 0.322482 0.233423 1.06768 0.0529038 1.93731C0.0154976 2.11738 0.00191822 3.0802 0.0113076 4.88741C0.0249374 7.50705 0.0276635 7.57343 0.129332 7.70952C0.327166 7.9744 0.488452 8.05703 0.807692 8.05703C1.12688 8.05703 1.28822 7.9744 1.48605 7.70952C1.58737 7.57388 1.5908 7.49831 1.61538 4.85152C1.63997 2.20471 1.6434 2.12914 1.74472 1.9935C1.80196 1.91687 1.9115 1.80732 1.98813 1.75008C2.12378 1.64876 2.19935 1.64533 4.84615 1.62075C7.49296 1.59616 7.56853 1.59273 7.70417 1.49141C7.96905 1.29358 8.05168 1.13224 8.05168 0.813053C8.05168 0.493813 7.96905 0.332477 7.70417 0.134693C7.56782 0.0328736 7.50543 0.0304001 4.82985 0.0206573C2.5988 0.0125299 2.04624 0.0239385 1.83068 0.0825467ZM13.4001 0.076388C12.8085 0.334042 12.7755 1.20721 13.345 1.53357C13.4252 1.5795 14.1538 1.60202 16.1628 1.62075C18.8006 1.64533 18.8762 1.64876 19.0119 1.75008C19.0885 1.80732 19.198 1.91687 19.2553 1.9935C19.3566 2.12914 19.36 2.20471 19.3846 4.85152C19.4092 7.49831 19.4126 7.57388 19.5139 7.70952C19.7118 7.9744 19.8731 8.05703 20.1923 8.05703C20.5115 8.05703 20.6728 7.9744 20.8707 7.70952C20.9723 7.57343 20.9751 7.50705 20.9887 4.88741C20.9981 3.0802 20.9845 2.11738 20.9471 1.93731C20.7642 1.05617 20.0454 0.314455 19.1477 0.0806789C18.7449 -0.0242202 13.6399 -0.0280566 13.4001 0.076388ZM0.479567 12.9969C0.292587 13.0835 0.12494 13.2616 0.053863 13.4491C0.0182236 13.5432 0 14.4827 0 16.2276C0 19.0848 0.00585585 19.1564 0.283096 19.7036C0.580428 20.2903 1.27439 20.8159 1.93195 20.9524C2.11201 20.9899 3.07483 21.0034 4.88205 20.994C7.50169 20.9804 7.56808 20.9777 7.70417 20.876C7.96905 20.6782 8.05168 20.5169 8.05168 20.1977C8.05168 19.8785 7.96905 19.7171 7.70417 19.5193C7.56853 19.418 7.49296 19.4146 4.84615 19.39C2.19935 19.3654 2.12378 19.362 1.98813 19.2606C1.9115 19.2034 1.80196 19.0938 1.74472 19.0172C1.6434 18.8816 1.63997 18.806 1.61538 16.1592C1.5908 13.5124 1.58737 13.4368 1.48605 13.3012C1.42881 13.2245 1.3226 13.1175 1.25006 13.0633C1.08276 12.9384 0.680733 12.9037 0.479567 12.9969ZM19.8895 12.9824C19.7419 13.0445 19.5514 13.2141 19.4683 13.3575C19.4269 13.429 19.4025 14.2486 19.3846 16.1682C19.36 18.806 19.3566 18.8816 19.2553 19.0172C19.198 19.0938 19.0885 19.2034 19.0119 19.2606C18.8762 19.362 18.8007 19.3654 16.1538 19.39C13.507 19.4146 13.4315 19.418 13.2958 19.5193C13.031 19.7171 12.9483 19.8785 12.9483 20.1977C12.9483 20.5169 13.031 20.6782 13.2958 20.876C13.4319 20.9777 13.4983 20.9804 16.118 20.994C17.9252 21.0034 18.888 20.9899 19.0681 20.9524C19.9718 20.7649 20.7604 19.9729 20.9492 19.0635C20.9839 18.8959 20.9978 17.8693 20.9887 16.1233C20.9751 13.5037 20.9723 13.4373 20.8707 13.3012C20.8134 13.2245 20.7072 13.1175 20.6347 13.0633C20.4813 12.9489 20.0743 12.9047 19.8895 12.9824Z" fill="white"/>
</g>
<defs>
<clipPath id="clip0_747_5929">
<rect width="21" height="21" fill="white"/>
</clipPath>
</defs>
</svg>
