<svg width="20" height="20" viewBox="0 0 20 20" fill="none" xmlns="http://www.w3.org/2000/svg">
<path fill-rule="evenodd" clip-rule="evenodd" d="M2.65625 3.80598L2.48047 3.85496L2.26672 3.96379L2.05297 4.07262L1.81422 4.31168L1.57543 4.55078L1.45504 4.80469L1.33469 5.05859L1.29234 5.29039L1.25 5.52215V10V14.4779L1.29234 14.7096L1.33469 14.9414L1.45504 15.1953L1.57543 15.4492L1.81422 15.6883L2.05297 15.9274L2.24719 16.0257L2.44141 16.1241L2.65359 16.187L2.86574 16.25H10.042H17.2183L17.476 16.1704L17.7336 16.0909L17.9781 15.9242L18.2227 15.7576L18.4043 15.5184L18.586 15.2792L18.6777 15.0517L18.7695 14.8242V10V5.17578L18.6777 4.94828L18.586 4.72078L18.4043 4.48156L18.2227 4.24238L17.9781 4.07578L17.7336 3.90914L17.476 3.82957L17.2183 3.75L10.0252 3.75348L2.83203 3.75699L2.65625 3.80598ZM15.4918 5.46211L15.0195 5.92422L12.7662 8.07875L10.5129 10.2333L10.3682 10.3315L10.2235 10.4297L10.0434 10.4295L9.86328 10.4294L9.74027 10.3544L9.61727 10.2794L6.85957 7.63969L4.10191 5H10.033H15.964L15.4918 5.46211ZM4.7834 7.41516L6.91789 9.45926L6.20148 10.2081L5.48508 10.957L4.02184 12.4968L2.55859 14.0366L2.5475 9.82105L2.53641 5.60547L2.55949 5.47602L2.58262 5.34656L2.61574 5.35883L2.64891 5.37109L4.7834 7.41516ZM17.5279 9.91406L17.5364 14.3945L17.3521 14.1948L17.168 13.9951L15.0977 11.8174L13.0273 9.63977V9.61348V9.58715L15.2344 7.47309L17.4414 5.35898L17.4805 5.39629L17.5195 5.43359L17.5279 9.91406ZM8.3773 10.8507L8.89418 11.3499L9.12801 11.4745L9.36184 11.5991L9.59149 11.6589L9.82109 11.7188H10.0391H10.257L10.4866 11.6589L10.7163 11.5991L10.9463 11.4765L11.1763 11.3539L11.6262 10.9243L12.0761 10.4947L12.3219 10.7454L12.5677 10.9961L14.4479 12.9768L16.3281 14.9575V14.9787V15H9.88281H3.4375V14.9791V14.9582L5.62797 12.6549L7.8184 10.3516H7.83941H7.86043L8.3773 10.8507Z" fill="#05A14F"/>
</svg>
