<svg width="20" height="20" viewBox="0 0 20 20" fill="none" xmlns="http://www.w3.org/2000/svg">
<path fill-rule="evenodd" clip-rule="evenodd" d="M9.32699 2.01033C7.63757 2.18561 6.18132 2.78057 4.93794 3.80358C3.36653 5.09643 2.37238 6.84778 2.05879 8.87567C1.9804 9.38263 1.9804 10.6219 2.05879 11.1288C2.28817 12.6122 2.87629 13.9413 3.79958 15.0629C5.09279 16.6339 6.84463 17.6277 8.87309 17.9412C9.3802 18.0196 10.6198 18.0196 11.1269 17.9412C13.1554 17.6277 14.9072 16.6339 16.2004 15.0629C17.1237 13.9413 17.7118 12.6122 17.9412 11.1288C18.0196 10.6219 18.0196 9.38263 17.9412 8.87567C17.6276 6.84778 16.6335 5.09643 15.0621 3.80358C13.9495 2.88823 12.6094 2.2926 11.1582 2.06841C10.8422 2.01959 9.61335 1.98063 9.32699 2.01033ZM10.4448 4.44683C11.3922 4.612 12.1208 5.30732 12.331 6.24696C12.3925 6.5216 12.4003 6.99095 12.3482 7.27967C12.1936 8.13644 11.535 8.85213 10.673 9.10014C10.3136 9.20357 9.68644 9.20357 9.32699 9.10014C8.61697 8.89588 8.04923 8.38729 7.78122 7.71547C7.66208 7.41683 7.61493 7.14995 7.61578 6.77896C7.61731 6.09869 7.89998 5.44129 8.37419 5.01504C8.92349 4.52131 9.68046 4.31358 10.4448 4.44683ZM10.4382 10.7539C11.9919 10.8894 13.5912 11.478 14.2914 12.172C14.5925 12.4704 14.7894 12.8473 14.7894 13.1253C14.7894 13.2423 14.6507 13.4396 14.2596 13.8793C13.5211 14.7094 12.3122 15.3993 11.1837 15.6347C9.02156 16.0856 6.79067 15.2601 5.42141 13.5027C5.18814 13.2033 5.17305 13.1444 5.25717 12.8612C5.48477 12.095 6.59612 11.384 8.18443 10.9885C9.08724 10.7636 9.75361 10.6943 10.4382 10.7539Z" fill="white"/>
</svg>
