<svg width="20" height="20" viewBox="0 0 20 20" fill="none" xmlns="http://www.w3.org/2000/svg">
<path fill-rule="evenodd" clip-rule="evenodd" d="M11.0622 1.03174L11.1885 1.06345L11.3216 1.13279L11.4546 1.20209L11.581 1.35542L11.7074 1.50871L11.7537 1.69282L11.8001 1.87693L11.7724 2.04997L11.7447 2.22296L11.614 2.41566L11.4833 2.6084L11.3148 2.69551L11.1464 2.78266L7.48362 2.80371L3.8208 2.82476L3.62393 2.91574L3.4271 3.00672L3.23538 3.18342L3.04364 3.36016L2.92698 3.59766L2.81036 3.83519V10.0031V16.1709L2.90134 16.3678L2.99232 16.5646L3.16902 16.7563L3.34577 16.9481L3.58326 17.0647L3.8208 17.1813L7.48362 17.2024L11.1464 17.2234L11.3148 17.3106L11.4833 17.3977L11.614 17.5904L11.7447 17.7831L11.7724 17.9561L11.8001 18.1292L11.7537 18.3133L11.7074 18.4974L11.5807 18.651L11.4541 18.8047L11.2792 18.8982L11.1043 18.9917H7.44152H3.77869L3.4498 18.9146L3.12086 18.8374L2.75513 18.6534L2.38935 18.4693L2.14693 18.2674L1.90446 18.0655L1.71484 17.8339L1.52517 17.6024L1.35942 17.2842L1.19367 16.9661L1.09683 16.6316L1 16.2972V10.0031V3.70889L1.09683 3.37448L1.19367 3.04002L1.35942 2.72191L1.52517 2.40375L1.71484 2.17219L1.90446 1.94063L2.14693 1.73993L2.38935 1.53923L2.71408 1.3702L3.03885 1.2012L3.36665 1.10908L3.69449 1.01701L7.31521 1.0085L10.9359 1L11.0622 1.03174ZM14.2619 4.736L14.4304 4.81397L14.8113 5.20871L15.1922 5.60345L16.9795 7.51389L18.7668 9.42433L18.8396 9.53446L18.9124 9.64464L18.9562 9.85553L19 10.0664L18.937 10.2785L18.874 10.4906L16.665 12.8497L14.456 15.2088L14.2793 15.2885L14.1027 15.3681L13.8803 15.3649L13.6578 15.3617L13.4643 15.2482L13.2707 15.1348L13.1583 14.9649L13.0458 14.795L13.0283 14.5522L13.0107 14.3094L13.0939 14.1245L13.1772 13.9395L14.5986 12.4239L16.02 10.9082L11.5203 10.8872L7.0205 10.8661L6.8942 10.7965L6.7679 10.7268L6.67809 10.628L6.58829 10.5293L6.51175 10.382L6.43521 10.2346L6.43689 9.99909L6.43858 9.76358L6.54008 9.57993L6.64159 9.39633L6.82414 9.26813L7.00669 9.13997L11.4902 9.1289L15.9737 9.11779L15.9599 9.08133L15.946 9.04487L14.5777 7.58576L13.2094 6.12661L13.1147 5.95315L13.02 5.77965L13.0209 5.56527L13.0218 5.35085L13.0997 5.17945L13.1775 5.0081L13.3408 4.87337L13.5041 4.73865L13.6515 4.69764L13.7988 4.65663L13.9462 4.65735L14.0935 4.65802L14.2619 4.736Z" fill="#05A14F"/>
</svg>
