<svg width="25" height="25" viewBox="0 0 25 25" fill="none" xmlns="http://www.w3.org/2000/svg">
<path fill-rule="evenodd" clip-rule="evenodd" d="M6.21171 6.03066L6.00159 6.05515L5.82935 6.134L5.65713 6.21284L5.54451 6.29874L5.43186 6.38467L5.31552 6.55848L5.19915 6.73232L5.13428 6.88856L5.06937 7.04481L5.03469 7.2104L5 7.37599V7.62285V7.86969L5.07703 8.11346L5.15403 8.35727L5.26658 8.54476L5.37911 8.73225L5.54679 8.951L5.71444 9.16974L5.93678 9.39539L6.15912 9.62104L6.29049 9.72775L6.42183 9.83443L8.39051 11.2021L10.3592 12.5698L10.9398 12.9834L11.5205 13.3969L11.7836 13.5621L12.0466 13.7273L12.2966 13.8428L12.5466 13.9584L12.6933 13.9937L12.8399 14.029H12.9997H13.1595L13.3062 13.9937L13.4528 13.9584L13.7028 13.8428L13.9528 13.7273L14.2143 13.5631L14.4758 13.3989L14.9487 13.0625L15.4215 12.726L17.4371 11.3266L19.4526 9.92724L19.704 9.73153L19.9553 9.53582L20.1353 9.34142L20.3153 9.14699L20.467 8.94653L20.6188 8.74606L20.7496 8.4821L20.8803 8.21811L20.9393 7.99084L20.9984 7.76354L20.9989 7.48054L20.9995 7.19755L20.936 7.01181L20.8725 6.82607L20.7538 6.6542L20.6349 6.48233L20.4514 6.33371L20.2678 6.18509L20.0946 6.1195L19.9214 6.0539L19.7183 6.02697L19.5151 6L12.9685 6.00309L6.42183 6.00619L6.21171 6.03066ZM5 13.5338V16.9818L6.99993 14.982L8.99987 12.9823V12.9762V12.9701L7.39836 11.87L5.79685 10.7698L5.62498 10.6378L5.45311 10.5058L5.22655 10.2957L5 10.0857V13.5338ZM20.8588 10.2176L20.7339 10.3466L20.4526 10.5741L20.1714 10.8015L18.5823 11.8886L16.9933 12.9756L18.9886 14.9711L20.9838 16.9665L20.9919 15.2478L21 13.529L20.9919 11.8088L20.9838 10.0886L20.8588 10.2176ZM7.74991 15.9828L5.48436 18.2496L5.56248 18.3122L5.6406 18.3748L5.78122 18.4468L5.92184 18.5189L6.07809 18.5629L6.23433 18.6069H12.9997H19.7651L19.9214 18.5629L20.0776 18.5189L20.2182 18.4468L20.3589 18.3748L20.437 18.3122L20.5151 18.2496L18.2496 15.9828L15.984 13.716L15.9474 13.7299L15.9108 13.7439L15.3133 14.1663L14.7159 14.5888L14.3296 14.7769L13.9433 14.965L13.6668 15.0492L13.3903 15.1334H12.9997H12.6091L12.3327 15.0492L12.0562 14.965L11.6699 14.7769L11.2836 14.5888L10.6861 14.1663L10.0887 13.7439L10.0521 13.7299L10.0155 13.716L7.74991 15.9828Z" fill="#ADACAC"/>
</svg>
