<svg width="20" height="20" viewBox="0 0 20 20" fill="none" xmlns="http://www.w3.org/2000/svg">
<path fill-rule="evenodd" clip-rule="evenodd" d="M6.2725 0.241367L6.12094 0.283164L5.9723 0.431797L5.82367 0.58043L5.7823 0.729453L5.7409 0.878477L5.7407 1.12262L5.74047 1.36676L4.46117 1.36699L3.18188 1.36719L3.0366 1.40754L2.89133 1.44789L2.76738 1.55219L2.6434 1.65648L2.57172 1.81437L2.5 1.97223V10.5855V19.1988L2.57301 19.3596L2.64602 19.5204L2.77723 19.6203L2.90844 19.7203L3.08422 19.7636L3.26 19.8068L10.0959 19.7958L16.9319 19.7847L17.0881 19.7031L17.2444 19.6215L17.3616 19.4556L17.4788 19.2897L17.4895 10.6505L17.5001 2.01129L17.4381 1.84711L17.376 1.68289L17.2429 1.56602L17.1098 1.44914L16.9622 1.40816L16.8147 1.36719L15.5403 1.36699L14.2659 1.36676L14.2484 1.0341L14.231 0.701484L14.1166 0.539531L14.0022 0.377617L13.847 0.297422L13.6917 0.217187H13.4936H13.2954L13.1211 0.319414L12.9467 0.421602L12.8523 0.589531L12.7579 0.757461L12.7402 1.06211L12.7226 1.36676H11.7316H10.7405V1.07223V0.777695L10.6641 0.62793L10.5877 0.478164L10.4675 0.37707L10.3474 0.276016L10.2021 0.235664L10.0569 0.195312H9.99828H9.93969L9.79441 0.235664L9.64914 0.276016L9.52902 0.37707L9.40891 0.478164L9.3325 0.62793L9.25609 0.777695V1.07223V1.36676H8.265H7.27395L7.25633 1.06211L7.23867 0.757461L7.1443 0.589531L7.04988 0.421602L6.89324 0.329805L6.73656 0.237969L6.58031 0.218789L6.42406 0.19957L6.2725 0.241367ZM5.74133 3.1148L5.74219 3.30035L5.81453 3.4566L5.88688 3.61285L5.99922 3.71777L6.11156 3.82273L6.22152 3.86426L6.33148 3.90582H6.50629H6.68109L6.83352 3.82805L6.98594 3.75027L7.09051 3.6132L7.19508 3.47609L7.23816 3.20266L7.28121 2.92926H8.26863H9.25609V3.13176V3.3343L9.33895 3.50543L9.4218 3.6766L9.57566 3.77844L9.72953 3.88023L9.93965 3.89766L10.1498 3.91512L10.3305 3.82762L10.5112 3.74012L10.6145 3.58402L10.7178 3.42797L10.7337 3.17859L10.7496 2.92926H11.7355H12.7215L12.7467 3.16988L12.7718 3.41051L12.8401 3.52707L12.9084 3.64363L13.0564 3.7632L13.2043 3.88277L13.4502 3.89844L13.6961 3.9141L13.8491 3.83598L14.0022 3.75789L14.0691 3.68395L14.1359 3.61L14.196 3.46621L14.2561 3.32238V3.12582V2.92926H15.0959H15.9358V10.5855V18.2418H9.95922H3.98266V10.5855V2.92926H4.86156H5.74047L5.74133 3.1148ZM6.18809 7.61207L6.0302 7.68375L5.9259 7.80773L5.8216 7.93168L5.78125 8.07695L5.7409 8.22223L5.7407 8.32199L5.74047 8.42172L5.84191 8.62527L5.94332 8.82883L6.12512 8.9357L6.30687 9.04254H9.97875H13.6506L13.7934 8.99191L13.9361 8.94129L14.0659 8.80859L14.1956 8.67594L14.2424 8.54672L14.2892 8.41754L14.2922 8.28934L14.2952 8.16113L14.2347 8.01645L14.1743 7.87172L14.0882 7.77816L14.0022 7.68457L13.8459 7.61246L13.6897 7.54035H10.0178H6.34594L6.18809 7.61207ZM6.33562 12.1857L6.20809 12.2165L6.05852 12.3155L5.90895 12.4145L5.84145 12.5567L5.77398 12.6989L5.75348 12.8252L5.73297 12.9516L5.77953 13.1246L5.82609 13.2975L5.96973 13.4411L6.11332 13.5847L6.26871 13.6279L6.42406 13.671L10.0373 13.6704L13.6506 13.6697L13.8072 13.5986L13.9638 13.5275L14.0863 13.388L14.2087 13.2485L14.2563 13.1044L14.3039 12.9603L14.2783 12.7983L14.2527 12.6363L14.1567 12.4906L14.0607 12.3449L13.8947 12.2562L13.7288 12.1675L10.0959 12.1613L6.46312 12.155L6.33562 12.1857Z" fill="#05A14F"/>
</svg>
