<svg width="20" height="20" viewBox="0 0 20 20" fill="none" xmlns="http://www.w3.org/2000/svg">
<path fill-rule="evenodd" clip-rule="evenodd" d="M9.00078 0.0600978L8.67312 0.111241L8.33607 0.215992L7.99902 0.320704L7.68622 0.470459L7.37341 0.620215L7.09971 0.804497L6.826 0.988778L6.5767 1.20731L6.32739 1.42581L6.10389 1.70022L5.88039 1.97458L5.71398 2.23906L5.54753 2.50358L5.41889 2.80856L5.29024 3.11359L5.21079 3.4043L5.13138 3.69501L5.08915 4.00086L5.04692 4.30674V5.8242V7.34166L4.29423 7.36156L3.54154 7.38143L3.38514 7.42733L3.22874 7.47324L2.96426 7.57208L2.69982 7.67097L2.41685 7.85638L2.13392 8.04176L1.9026 8.27308L1.67128 8.5044L1.4859 8.78733L1.30049 9.0703L1.20086 9.33474L1.10119 9.59922L1.0506 9.79472L1 9.99022V13.6852V17.3803L1.0506 17.5758L1.10119 17.7713L1.20086 18.0357L1.30049 18.3002L1.4859 18.5831L1.67128 18.8661L1.9026 19.0974L2.13392 19.3287L2.41685 19.5141L2.69982 19.6995L2.96426 19.7991L3.22874 19.8988L3.42424 19.9494L3.61975 20H9.739H15.8583L16.0538 19.9494L16.2493 19.8988L16.5137 19.7991L16.7782 19.6995L17.0612 19.5141L17.3441 19.3287L17.5754 19.0974L17.8067 18.8661L17.9921 18.5831L18.1775 18.3002L18.2766 18.0357L18.3757 17.7713L18.4236 17.5953L18.4716 17.4194L18.4748 17.0283L18.478 16.6373L18.3852 16.4881L18.2924 16.3388L18.1339 16.2339L17.9754 16.129H17.7155H17.4557L17.2972 16.2339L17.1387 16.3388L17.0551 16.4741L16.9715 16.6093L16.9314 16.929L16.8913 17.2488L16.8118 17.4612L16.7324 17.6737L16.583 17.8626L16.4336 18.0516L16.2495 18.1735L16.0655 18.2954L15.8641 18.3657L15.6628 18.436H9.739H3.81525L3.61392 18.3657L3.41255 18.2954L3.22847 18.1735L3.04438 18.0516L2.89501 17.8626L2.74565 17.6737L2.65486 17.4488L2.56403 17.2239V13.6852V10.1466L2.65486 9.92172L2.74565 9.69681L2.89501 9.50784L3.04438 9.3189L3.22847 9.19695L3.41255 9.07503L3.61392 9.00477L3.81525 8.93451H9.739H15.6628L15.8641 9.00477L16.0655 9.07503L16.2495 9.19695L16.4336 9.3189L16.583 9.50784L16.7324 9.69681L16.8224 9.92172L16.9125 10.1466L16.9328 11.8895L16.9531 13.6325L17.058 13.7909L17.1629 13.9493L17.3121 14.0421L17.4614 14.1349H17.7155H17.9697L18.1189 14.0421L18.2682 13.9493L18.3731 13.7908L18.478 13.6323V11.8113V9.99022L18.4274 9.79472L18.3768 9.59922L18.2771 9.33474L18.1775 9.0703L17.9921 8.78733L17.8067 8.5044L17.5754 8.27308L17.3441 8.04176L17.0612 7.85638L16.7782 7.67097L16.5137 7.57208L16.2493 7.47324L16.0929 7.42733L15.9365 7.38143L15.1867 7.3616L14.4369 7.34178L14.4204 5.65525L14.4039 3.96872L14.3358 3.67546L14.2676 3.38221L14.1883 3.14761L14.109 2.913L13.897 2.50244L13.685 2.09189L13.4087 1.74811L13.1324 1.40434L12.8531 1.1686L12.5738 0.932864L12.3392 0.777634L12.1046 0.622405L11.7905 0.471984L11.4763 0.321525L11.1514 0.218925L10.8266 0.116285L10.4395 0.0581427L10.0523 0L9.6904 0.00449658L9.32845 0.00895406L9.00078 0.0600978ZM10.3205 1.62405L10.637 1.68411L10.9139 1.79679L11.1908 1.90944L11.4074 2.03977L11.624 2.17009L11.878 2.40203L12.1321 2.63394L12.3209 2.90283L12.5098 3.17177L12.6265 3.45294L12.7432 3.73412L12.8051 4.0355L12.8671 4.33689V5.84391V7.35093H9.73666H6.60626L6.62049 5.71847L6.63468 4.08602L6.72325 3.79277L6.81181 3.49951L6.97411 3.19449L7.13646 2.88946L7.40669 2.59617L7.67695 2.30287L7.9114 2.14366L8.14588 1.9844L8.44239 1.84743L8.73885 1.71046L9.07273 1.64L9.40665 1.56954L9.70538 1.56676L10.0041 1.56403L10.3205 1.62405ZM5.09427 12.7887L4.96571 12.828L4.81286 12.9809L4.66002 13.1337L4.61486 13.3015L4.56966 13.4694L4.59367 13.6444L4.61763 13.8195L4.71234 13.9626L4.80704 14.1057L4.95632 14.1985L5.10557 14.2913H5.36258H5.61959L5.7781 14.1864L5.93662 14.0815L6.0294 13.9322L6.12219 13.783V13.5288V13.2747L6.0294 13.1254L5.93662 12.9761L5.78925 12.8787L5.64192 12.7812L5.43241 12.7652L5.22287 12.7493L5.09427 12.7887ZM8.02682 12.7887L7.89826 12.828L7.74542 12.9809L7.59257 13.1337L7.54741 13.3015L7.50221 13.4694L7.52622 13.6444L7.55019 13.8195L7.64489 13.9626L7.73959 14.1057L7.88888 14.1985L8.03812 14.2913H8.29513H8.55214L8.71065 14.1864L8.86917 14.0815L8.96196 13.9322L9.05474 13.783V13.5288V13.2747L8.96196 13.1254L8.86917 12.9761L8.7218 12.8787L8.57447 12.7812L8.36497 12.7652L8.15543 12.7493L8.02682 12.7887ZM10.9594 12.7887L10.8308 12.828L10.678 12.9809L10.5251 13.1337L10.48 13.3015L10.4348 13.4694L10.4588 13.6444L10.4827 13.8195L10.5774 13.9626L10.6721 14.1057L10.8214 14.1985L10.9707 14.2913H11.2277H11.4847L11.6432 14.1864L11.8017 14.0815L11.8945 13.9322L11.9873 13.783V13.5288V13.2747L11.8945 13.1254L11.8017 12.9761L11.6543 12.8787L11.507 12.7812L11.2975 12.7652L11.088 12.7493L10.9594 12.7887ZM13.931 12.7887L13.8025 12.828L13.6496 12.9809L13.4968 13.1337L13.4516 13.3015L13.4064 13.4694L13.4304 13.6444L13.4544 13.8195L13.5491 13.9626L13.6438 14.1057L13.7931 14.1985L13.9423 14.2913H14.1993H14.4563L14.6149 14.1864L14.7734 14.0815L14.8662 13.9322L14.9589 13.783V13.5288V13.2747L14.8662 13.1254L14.7734 12.9761L14.626 12.8787L14.4787 12.7812L14.2692 12.7652L14.0596 12.7493L13.931 12.7887Z" fill="#05A14F"/>
</svg>
