<svg width="20" height="20" viewBox="0 0 20 20" fill="none" xmlns="http://www.w3.org/2000/svg">
<path fill-rule="evenodd" clip-rule="evenodd" d="M9.15714 2.04513L8.86021 2.09027L8.53203 2.17219L8.20385 2.25411L7.81316 2.40638L7.42246 2.55866L7.10103 2.73897L6.77957 2.91928L6.49155 3.12182L6.2035 3.32435L5.7653 3.76255L5.3271 4.20075L5.12457 4.4888L4.92203 4.77682L4.74185 5.09828L4.56163 5.41971L4.40857 5.81041L4.25551 6.2011L4.17459 6.52928L4.09367 6.85746L4.04741 7.18564L4.00116 7.51382L4.00056 7.97865L4 8.44345L4.04916 8.77566L4.09833 9.10785L4.16003 9.37352L4.22169 9.63919L4.3023 9.90486L4.38291 10.1705L4.51553 10.5143L4.64817 10.8581L4.84543 11.2801L5.04271 11.702L5.22927 12.0459L5.41584 12.3897L5.60374 12.7022L5.79165 13.0148L6.10361 13.4826L6.4156 13.9505L6.66699 14.2953L6.91841 14.64L7.26134 15.0776L7.60424 15.5152L7.85607 15.8121L8.10789 16.109L8.46836 16.5154L8.82883 16.9217L9.35764 17.4608L9.88645 18H10.001H10.1156L10.645 17.4608L11.1744 16.9217L11.5771 16.4685L11.9798 16.0153L12.3763 15.5308L12.7729 15.0464L13.1012 14.6088L13.4295 14.1712L13.7097 13.7649L13.9898 13.3586L14.2045 13.0154L14.4192 12.6722L14.5743 12.4059L14.7293 12.1396L14.9719 11.6552L15.2146 11.1707L15.3596 10.8302L15.5046 10.4897L15.6301 10.1143L15.7556 9.73886L15.8298 9.42337L15.904 9.10785L15.9531 8.77566L16.0021 8.44345L16.0015 7.97865L16.0009 7.51382L15.9546 7.18564L15.9084 6.85746L15.8268 6.52928L15.7452 6.2011L15.5929 5.81041L15.4407 5.41971L15.2603 5.09828L15.08 4.77682L14.8769 4.49077L14.6737 4.20472L14.349 3.86582L14.0244 3.52692L13.7864 3.33501L13.5485 3.14313L13.2672 2.95751L12.9859 2.77188L12.6109 2.59004L12.2358 2.4082L11.9004 2.29686L11.565 2.1855L11.1815 2.10439L10.798 2.02329L10.1261 2.01166L9.45406 2L9.15714 2.04513ZM10.6038 5.33117L10.8159 5.37833L11.0085 5.45381L11.201 5.52926L11.4215 5.65919L11.6419 5.78909L11.9261 6.07323L12.2102 6.35737L12.3401 6.57785L12.47 6.79832L12.5455 6.99086L12.621 7.18342L12.6737 7.41112L12.7265 7.63884L12.7281 7.99828L12.7297 8.35772L12.6634 8.62992L12.597 8.90216L12.5034 9.10866L12.4097 9.31516L12.2708 9.52407L12.1318 9.73295L11.9025 9.95505L11.6732 10.1772L11.4881 10.2955L11.303 10.4137L11.1112 10.5007L10.9194 10.5877L10.7224 10.6387L10.5253 10.6898L10.2736 10.7185L10.0218 10.7472L9.73177 10.7171L9.44169 10.6871L9.15095 10.5936L8.86021 10.5002L8.61017 10.3542L8.36012 10.2083L8.07598 9.92374L7.79184 9.63919L7.66194 9.41871L7.53201 9.19824L7.45569 9.00345L7.37933 8.80867L7.32513 8.56757L7.27091 8.32646L7.27134 7.98265L7.27175 7.63884L7.34292 7.35755L7.41409 7.07625L7.49985 6.88628L7.58558 6.69628L7.70386 6.51121L7.82216 6.32612L8.04426 6.0968L8.26636 5.86748L8.47524 5.72852L8.68415 5.58959L8.88156 5.5017L9.079 5.41381L9.27597 5.35998L9.47294 5.30616L9.66666 5.27944L9.86038 5.25272L10.1261 5.26834L10.3917 5.28397L10.6038 5.33117Z" fill="#05A14F"/>
</svg>
