<svg width="80" height="80" viewBox="0 0 80 80" fill="none" xmlns="http://www.w3.org/2000/svg">
<path fill-rule="evenodd" clip-rule="evenodd" d="M21.3623 7.38937L3.42937 14.7656L2.95484 15.1562L2.48031 15.5469L2.26172 16.1719L2.04328 16.7969L2.03719 39.9219L2.03125 63.0469L2.20422 63.67L2.37734 64.2933L2.88141 64.7637L3.38531 65.2344L21.3753 72.6172L39.3653 80H40.0003H40.6352L58.6247 72.6172L76.6141 65.2344L77.1167 64.7637L77.6192 64.2933L77.7923 63.67L77.9653 63.0469V40V16.9531L77.7923 16.33L77.6192 15.7067L77.1167 15.2362L76.6141 14.7656L58.6247 7.38281L40.6352 0L39.9652 0.0065625L39.2952 0.0129687L21.3623 7.38937ZM44.1564 6.96906L48.2014 8.62578L48.3109 8.72703L48.4205 8.82844L34.8136 14.7658L21.2066 20.7031L20.8323 20.8348L20.4581 20.9666L15.9705 19.1309L11.4827 17.2953L11.3597 17.1888L11.2367 17.0822L25.5003 11.21L39.7639 5.33797L39.9377 5.32516L40.1114 5.3125L44.1564 6.96906ZM62.0419 14.3219L68.7609 17.0811L68.6373 17.1895L68.5139 17.2981L54.3617 23.1022L40.2095 28.9062H40.0016H39.7936L33.8412 26.4656L27.8889 24.0248L27.5405 23.8456L27.192 23.6664L40.978 17.6314L54.7639 11.5964L55.0433 11.5795L55.3228 11.5625L62.0419 14.3219ZM12.7517 23.3303L18.2014 25.567L18.2795 32.4319L18.3577 39.2969L18.6702 39.8273L18.9827 40.358L19.3853 40.6581L19.7881 40.9583L20.3228 41.0752L20.8577 41.192L21.3853 41.0805L21.913 40.9689L22.3131 40.67L22.7133 40.3713L23.0355 39.94L23.3577 39.5088L23.4022 33.6606L23.4467 27.8125H23.5559H23.6653L30.5819 30.6541L37.4983 33.4956V53.5447V73.5938H37.363H37.2278L22.2458 67.4377L7.26391 61.2816L7.22422 41.1877L7.18453 21.0938H7.24328H7.30203L12.7517 23.3303ZM72.7723 41.1892L72.7327 61.2848L57.6155 67.4961L42.4983 73.7072V53.6023V33.4973L57.5373 27.3069L72.5764 21.1164L72.6942 21.105L72.812 21.0938L72.7723 41.1892Z" fill="#E0DEDE"/>
</svg>
