<svg width="20" height="20" viewBox="0 0 20 20" fill="none" xmlns="http://www.w3.org/2000/svg">
<path fill-rule="evenodd" clip-rule="evenodd" d="M7.89986 2.00891C5.32114 2.33309 3.13181 4.09979 2.32591 6.50676C2.04887 7.33422 2 7.65648 2 8.65649C2 9.42568 2.01302 9.612 2.0914 9.966C2.48926 11.7629 3.48777 13.2431 4.95755 14.2147C5.69918 14.705 6.44448 15.0146 7.3573 15.2115C7.9456 15.3384 9.30628 15.3502 9.8614 15.2332C10.6684 15.063 11.4715 14.7571 12.0785 14.3886L12.3316 14.2349L14.1327 16.0288C15.816 17.7053 15.9497 17.8284 16.1754 17.9112C17.2755 18.3145 18.3147 17.2759 17.9111 16.1764C17.8283 15.9508 17.7051 15.8173 16.0276 14.135L14.2328 12.3349L14.3865 12.082C14.7559 11.4742 15.0632 10.6679 15.2309 9.86611C15.3379 9.35444 15.3374 8.04355 15.23 7.46773C14.7281 4.77897 12.6917 2.69894 9.97934 2.10472C9.68707 2.0407 9.39777 2.01584 8.81803 2.00499C8.39337 1.99703 7.9802 1.99878 7.89986 2.00891ZM9.65177 4.10759C11.3471 4.4774 12.7138 5.78775 13.1565 7.46773C13.482 8.70333 13.2859 10.0172 12.6127 11.1104C12.367 11.5095 11.8087 12.1118 11.4127 12.4051C10.2863 13.2394 8.83226 13.5182 7.47041 13.1611C5.78127 12.7181 4.48569 11.3674 4.09226 9.63916C3.97164 9.10947 3.97164 8.20351 4.09226 7.67383C4.53619 5.72376 6.11728 4.28086 8.08767 4.02763C8.48991 3.97591 9.21902 4.0132 9.65177 4.10759Z" fill="white"/>
</svg>
