<svg width="20" height="20" viewBox="0 0 20 20" fill="none" xmlns="http://www.w3.org/2000/svg">
<g clip-path="url(#clip0_789_904)">
<path fill-rule="evenodd" clip-rule="evenodd" d="M1.86305 0.0544531L1.74516 0.10582L1.62344 0.244453L1.50172 0.383047L0.750859 2.63566L0 4.88824L0.0184375 5.61797L0.0369141 6.34766L0.12125 6.63383L0.205547 6.92004L0.320508 7.17355L0.435469 7.42707L0.611016 7.69113L0.786563 7.9552L1.09953 8.26691L1.4125 8.57863L1.42348 13.4202L1.43441 18.2617L1.49621 18.4375L1.55801 18.6133L1.67184 18.8475L1.78566 19.0818L2.0591 19.3569L2.33254 19.632L2.56691 19.7541L2.80129 19.8762L3.04129 19.9381L3.28133 20H10.0083H16.7353L16.9754 19.9381L17.2154 19.8762L17.4497 19.7541L17.6841 19.632L17.9575 19.3569L18.231 19.0818L18.3448 18.8475L18.4586 18.6133L18.5204 18.4375L18.5822 18.2617L18.5932 13.4202L18.6041 8.57863L18.9171 8.26691L19.2301 7.9552L19.4056 7.69113L19.5812 7.42707L19.6961 7.17355L19.8111 6.92004L19.8954 6.63383L19.9797 6.34766L19.9982 5.61797L20.0166 4.88824L19.2658 2.63566L18.5149 0.383047L18.3931 0.244297L18.2713 0.105547L18.145 0.0527734L18.0186 0L9.9998 0.00152344L1.98098 0.00304688L1.86305 0.0544531ZM5.00832 2.85156V4.25781H3.37082H1.73332L2.20227 2.85156L2.67121 1.44531H3.83977H5.00832V2.85156ZM9.26613 2.85156V4.25781H7.85988H6.45363V2.85156V1.44531H7.85988H9.26613V2.85156ZM13.563 2.85156V4.25781H12.1568H10.7505V2.85156V1.44531H12.1568H13.563V2.85156ZM17.8144 2.85156L18.2833 4.25781H16.6458H15.0083V2.85156V1.44531H16.1769H17.3454L17.8144 2.85156ZM18.5624 5.84961L18.5618 5.95703L18.503 6.20691L18.4441 6.4568L18.3036 6.72414L18.163 6.99152L17.8885 7.25051L17.614 7.50949L17.3722 7.62266L17.1304 7.73578L16.8604 7.79301L16.5904 7.85019H16.4341H16.2779L16.0127 7.79402L15.7476 7.73785L15.4914 7.61172L15.2352 7.48555L14.9512 7.22035L14.6672 6.95516L14.5618 6.91508L14.4564 6.875H14.2812H14.106L13.981 6.9391L13.856 7.00316L13.6205 7.2223L13.3852 7.44141L13.1518 7.56508L12.9185 7.68875L12.6785 7.75063L12.4384 7.8125H12.1496H11.8607L11.6373 7.75434L11.414 7.69617L11.1828 7.57941L10.9515 7.4627L10.6878 7.22859L10.4241 6.99449L10.2982 6.93473L10.1723 6.875L10.0415 6.87523L9.91066 6.87543L9.77141 6.91414L9.63211 6.95281L9.38078 7.1873L9.12941 7.42184L8.87191 7.55746L8.61441 7.69309L8.38519 7.75281L8.15598 7.8125L7.88098 7.81191L7.60598 7.81133L7.3557 7.75234L7.10543 7.69336L6.87219 7.56902L6.63891 7.44469L6.38449 7.21414L6.13008 6.98359L6.00016 6.9293L5.87019 6.875H5.73098H5.59176L5.45301 6.93297L5.31426 6.99094L5.04633 7.23902L4.77836 7.48711L4.52371 7.61246L4.26902 7.73785L4.00391 7.79402L3.73879 7.85019H3.58254H3.42629L3.15629 7.79301L2.88625 7.73578L2.64445 7.62266L2.40266 7.50949L2.12812 7.25051L1.85359 6.99152L1.71309 6.72414L1.57258 6.4568L1.51367 6.20691L1.4548 5.95703L1.45422 5.84961L1.45363 5.74219H10.0083H18.563L18.5624 5.84961ZM5.99066 8.74285L6.23879 8.89199L6.4927 8.99652L6.7466 9.10106L6.98098 9.16375L7.21535 9.22645L7.72633 9.24699L8.23734 9.26754L8.56617 9.20117L8.89504 9.1348L9.18801 9.01824L9.48098 8.90168L9.72738 8.74769L9.97379 8.59375H10.0083H10.0429L10.2893 8.74769L10.5357 8.90168L10.8286 9.01824L11.1216 9.1348L11.4505 9.20117L11.7793 9.26754L12.2903 9.24699L12.8013 9.22645L13.0357 9.16375L13.27 9.10106L13.5239 8.99652L13.7779 8.89199L14.026 8.74285L14.2741 8.59375H14.2924H14.3107L14.5973 8.76777L14.884 8.94176L15.1317 9.04242L15.3794 9.14312L15.77 9.22406L16.1607 9.30496L16.5904 9.28453L17.02 9.2641L17.0894 9.23688L17.1587 9.20965L17.148 13.6185L17.1372 18.0273L17.0304 18.2091L16.9235 18.3909L16.7543 18.4728L16.5852 18.5547H14.7225H12.8599V15.242V11.9294L12.748 11.7529L12.6361 11.5764L12.4843 11.5011L12.3325 11.4258H10.0083H7.6841L7.53234 11.5011L7.38059 11.5764L7.26867 11.7529L7.15676 11.9294V15.242V18.5547H5.2941H3.43141L3.2623 18.4728L3.09316 18.3909L2.98629 18.2091L2.87941 18.0273L2.86867 13.6185L2.85793 9.20965L2.92727 9.23688L2.9966 9.2641L3.42629 9.28453L3.85598 9.30496L4.2466 9.22406L4.63723 9.14312L4.88562 9.04215L5.13402 8.94121L5.41297 8.76918L5.69191 8.59711L5.71723 8.59543L5.74254 8.59375L5.99066 8.74285ZM11.4146 15.7031V18.5547H10.0083H8.60207V15.7031V12.8516H10.0083H11.4146V15.7031Z" fill="#05A14F"/>
</g>
<defs>
<clipPath id="clip0_789_904">
<rect width="20" height="20" fill="white"/>
</clipPath>
</defs>
</svg>
