<svg width="20" height="20" viewBox="0 0 20 20" fill="none" xmlns="http://www.w3.org/2000/svg">
<path fill-rule="evenodd" clip-rule="evenodd" d="M9.38633 0.0353125L9.13242 0.070625L8.83945 0.135312L8.54648 0.200039L8.17082 0.34543L7.79516 0.49082L7.53934 0.633906L7.28352 0.776953L6.96129 1.01586L6.6391 1.25473L6.37578 1.52176L6.11246 1.78875L5.94012 2.0152L5.76777 2.24164L5.6223 2.48383L5.4768 2.72598L5.34582 3.01117L5.21484 3.29633L5.11273 3.62164L5.01066 3.94699L4.95258 4.30523L4.89445 4.66352L4.8943 5.11563L4.89414 5.56773L4.95582 5.93594L5.01746 6.30414L5.1134 6.61316L5.20934 6.92223L5.32715 7.19063L5.44496 7.45902L5.58641 7.70187L5.72789 7.94477L5.95082 8.23773L6.17375 8.5307L6.44215 8.78547L6.71055 9.04023L6.8375 9.14426L6.96445 9.24832V9.26449V9.2807L6.70078 9.39109L6.43711 9.50152L6.10508 9.67703L5.77305 9.85258L5.34336 10.1353L4.91367 10.4179L4.52082 10.7487L4.12793 11.0795L3.78773 11.4561L3.44754 11.8328L3.21695 12.1438L2.98633 12.4548L2.78496 12.7882L2.58363 13.1215L2.35645 13.5995L2.1293 14.0776L1.99219 14.4877L1.85508 14.8979L1.75598 15.3471L1.65684 15.7963L1.61281 16.1762L1.56883 16.5561L1.56566 17.0551L1.5625 17.5541L1.62832 17.8276L1.69414 18.101L1.84668 18.4135L1.99926 18.726L2.20133 18.9703L2.4034 19.2146L2.64293 19.3962L2.88242 19.5777L3.19492 19.7249L3.50742 19.872L3.80852 19.9338L4.10961 19.9955H10.0113H15.913L16.2141 19.9338L16.5152 19.872L16.8277 19.7249L17.1402 19.5777L17.3797 19.3962L17.6193 19.2146L17.8213 18.9703L18.0234 18.726L18.176 18.4135L18.3285 18.101L18.3943 17.8276L18.4602 17.5541L18.457 17.0551L18.4538 16.5561L18.4098 16.1762L18.3658 15.7963L18.2667 15.3471L18.1676 14.8979L18.0305 14.4877L17.8934 14.0776L17.6662 13.5995L17.439 13.1215L17.2377 12.7882L17.0363 12.4548L16.8057 12.1438L16.5751 11.8328L16.2349 11.4561L15.8947 11.0795L15.5018 10.7487L15.109 10.4179L14.6793 10.1353L14.2496 9.85258L13.9176 9.67703L13.5855 9.50152L13.3219 9.39109L13.0582 9.2807V9.26449V9.24832L13.1852 9.14426L13.3121 9.04023L13.5805 8.78547L13.8489 8.5307L14.0718 8.23773L14.2948 7.94477L14.4363 7.70187L14.5777 7.45902L14.6955 7.19063L14.8133 6.92223L14.9093 6.61316L15.0052 6.30414L15.0668 5.93594L15.1285 5.56773L15.1284 5.11563L15.1282 4.66352L15.0701 4.30523L15.012 3.94699L14.9099 3.62164L14.8078 3.29633L14.6768 3.01117L14.5459 2.72598L14.4004 2.48383L14.2549 2.24164L14.0825 2.0152L13.9102 1.78875L13.6469 1.52176L13.3836 1.25473L13.0614 1.01586L12.7391 0.776953L12.4833 0.633906L12.2275 0.49082L11.8433 0.341836L11.4591 0.192852L11.0575 0.110508L10.6559 0.0281641L10.148 0.0141016L9.64023 0L9.38633 0.0353125ZM10.734 1.6218L11.0465 1.68039L11.3671 1.81043L11.6877 1.94047L11.9633 2.12367L12.2389 2.30687L12.4474 2.49746L12.6559 2.68801L12.815 2.89449L12.9743 3.10102L13.1123 3.33055L13.2504 3.56008L13.3486 3.81883L13.4468 4.07758L13.5044 4.33148L13.5621 4.58539L13.5881 4.87871L13.6141 5.17207L13.5661 5.54277L13.5181 5.91352L13.4399 6.16742L13.3617 6.42133L13.2242 6.69477L13.0867 6.9682L12.9395 7.18305L12.7924 7.39789L12.5835 7.60961L12.3746 7.82133L12.1854 7.97109L11.9961 8.1209L11.7506 8.25816L11.5051 8.39547L11.2172 8.49609L10.9293 8.59672L10.6427 8.6516L10.356 8.70648H10.0113H9.66664L9.38 8.6516L9.09336 8.59672L8.80547 8.49609L8.51758 8.39547L8.27207 8.25816L8.0266 8.1209L7.83731 7.97109L7.64805 7.82133L7.43914 7.60961L7.23023 7.39789L7.08313 7.18305L6.93598 6.9682L6.79848 6.69477L6.66098 6.42133L6.58277 6.16742L6.50457 5.91352L6.45656 5.54277L6.40852 5.17207L6.43453 4.87871L6.46059 4.58539L6.51852 4.33148L6.57641 4.07758L6.65336 3.8707L6.73035 3.66383L6.81383 3.49961L6.89734 3.33539L7.04297 3.12055L7.18863 2.9057L7.3793 2.69344L7.56992 2.48121L7.87539 2.25449L8.18086 2.02777L8.46906 1.89102L8.75727 1.75422L9.04945 1.67406L9.34164 1.59391L9.64719 1.56246L9.95273 1.53105L10.1871 1.54711L10.4215 1.5632L10.734 1.6218ZM11.0028 10.3305L11.398 10.3921L11.702 10.4684L12.0059 10.5447L12.383 10.6812L12.76 10.8177L13.164 11.0286L13.568 11.2396L13.9056 11.4666L14.2432 11.6936L14.598 12.01L14.9527 12.3264L15.1697 12.577L15.3866 12.8276L15.5647 13.062L15.7427 13.2963L15.9036 13.5593L16.0644 13.8224L16.2057 14.1029L16.347 14.3835L16.4804 14.7332L16.6139 15.083L16.7095 15.4602L16.8051 15.8373L16.869 16.3246L16.9329 16.812L16.9179 17.1635L16.9029 17.5151L16.8163 17.6938L16.7297 17.8725L16.5974 18.0271L16.4652 18.1816L16.2742 18.2856L16.0832 18.3895L15.8305 18.4305L15.5777 18.4715H10.0113H4.44492L4.19219 18.4305L3.93945 18.3895L3.74848 18.2856L3.5575 18.1816L3.42523 18.0271L3.29297 17.8725L3.20633 17.6938L3.11973 17.5151L3.10473 17.1635L3.08977 16.812L3.15367 16.3246L3.21754 15.8373L3.31316 15.4602L3.40875 15.083L3.54223 14.7332L3.6757 14.3835L3.81699 14.1029L3.95828 13.8224L4.11875 13.5602L4.27926 13.298L4.51633 12.9846L4.7534 12.6713L5.12652 12.2982L5.49961 11.9251L5.81293 11.688L6.12625 11.451L6.38898 11.2902L6.65168 11.1294L6.9732 10.9677L7.29473 10.8061L7.65336 10.6762L8.01199 10.5464L8.25969 10.4814L8.50742 10.4163L8.91758 10.3463L9.32773 10.2763L9.96762 10.2726L10.6075 10.269L11.0028 10.3305Z" fill="#05A14F"/>
</svg>
