<svg width="25" height="25" viewBox="0 0 25 25" fill="none" xmlns="http://www.w3.org/2000/svg">
<path fill-rule="evenodd" clip-rule="evenodd" d="M10.7615 5.11587L10.3773 5.22859L10.0096 5.37697L9.64196 5.52535L9.43475 5.62996L9.22757 5.73453L8.93376 5.90773L8.63998 6.08096L8.3336 6.30067L8.02726 6.52041L7.73736 6.76925L7.44749 7.01813L7.1636 7.31969L6.87968 7.62129L6.6016 7.98951L6.32352 8.35776L6.13389 8.67088L5.94425 8.984L5.79581 9.28898L5.64736 9.59395L7.31074 9.60263L8.97408 9.61132L9.01164 9.59695L9.04916 9.58259L9.07221 9.45463L9.0953 9.32666L9.20819 8.87562L9.32112 8.42458L9.4743 7.97858L9.62753 7.53258L9.71349 7.32708L9.79946 7.12157L9.99568 6.73067L10.1919 6.33976L10.3479 6.09587L10.5039 5.85197L10.6574 5.65204L10.8109 5.45208L11.0242 5.22606L11.2374 5L11.1916 5.00157L11.1458 5.00314L10.7615 5.11587ZM14.9759 5.22606L15.1892 5.45208L15.3427 5.65204L15.4962 5.85197L15.655 6.10014L15.8137 6.34832L16.0082 6.73494L16.2028 7.12157L16.32 7.41298L16.4372 7.70438L16.5734 8.12298L16.7096 8.54155L16.826 9.01588L16.9425 9.49021V9.55041V9.61065H18.6456H20.3487L20.318 9.5299L20.2873 9.44915L20.1833 9.2431L20.0793 9.03709L19.8795 8.70062L19.6797 8.36417L19.3893 7.97674L19.0988 7.58932L18.6805 7.17005L18.2622 6.75078L17.9782 6.53114L17.6942 6.31153L17.3601 6.09363L17.026 5.87572L16.7086 5.7073L16.3912 5.53888L16.0158 5.38576L15.6404 5.2326L15.2364 5.1163L14.8323 5H14.7975H14.7627L14.9759 5.22606ZM12.6307 5.38255L12.512 5.42632L12.3634 5.50159L12.2149 5.57683L12.0072 5.74145L11.7995 5.90609L11.5925 6.16302L11.3856 6.41995L11.2411 6.64503L11.0967 6.87012L10.9164 7.22972L10.7362 7.58932L10.5668 8.04153L10.3974 8.49374L10.2829 8.91154L10.1684 9.32937L10.1446 9.46999L10.1209 9.61065H13.0001H15.8792L15.8555 9.46999L15.8317 9.32937L15.7172 8.91154L15.6027 8.49374L15.4343 8.04153L15.266 7.58932L15.0346 7.14128L14.8031 6.69325L14.6116 6.42559L14.42 6.15791L14.2028 5.93773L13.9857 5.71759L13.8019 5.59741L13.6181 5.47724L13.4248 5.40567L13.2314 5.33411L12.9904 5.33644L12.7495 5.33882L12.6307 5.38255ZM5.18382 10.988L5.11286 11.2963L5.0569 11.6145L5.00097 11.9327L5.00047 12.8014L5 13.67L5.05583 14.0041L5.11169 14.3382L5.18322 14.6473L5.25479 14.9563H7.06059H8.86637L8.84315 14.7308L8.81989 14.5053L8.78565 14.1378L8.75137 13.7703V12.8181V11.8659L8.78565 11.4983L8.81989 11.1308L8.84315 10.9053L8.86637 10.6798H7.06059H5.25479L5.18382 10.988ZM9.91349 10.7717L9.89538 10.8635L9.85238 11.2645L9.80935 11.6654V12.8181V13.9707L9.85238 14.3717L9.89538 14.7726L9.91349 14.8645L9.93159 14.9563H13.0001H16.0685L16.0866 14.8645L16.1047 14.7726L16.1477 14.3717L16.1908 13.9707V12.8181V11.6654L16.1477 11.2645L16.1047 10.8635L16.0866 10.7717L16.0685 10.6798H13.0001H9.93159L9.91349 10.7717ZM17.157 10.9053L17.1802 11.1308L17.2145 11.4983L17.2487 11.8659V12.8181V13.7703L17.2145 14.1378L17.1802 14.5053L17.157 14.7308L17.1337 14.9563H18.9398H20.7458L20.8151 14.6473L20.8843 14.3382L20.9422 14.0041L21 13.67L20.9998 12.8181L20.9997 11.9661L20.9441 11.632L20.8884 11.2979L20.8169 10.9888L20.7453 10.6798H18.9395H17.1337L17.157 10.9053ZM5.68208 16.1062L5.71278 16.187L5.81946 16.3986L5.92611 16.6102L6.12677 16.9443L6.32743 17.2784L6.61473 17.6626L6.90206 18.0468L7.30325 18.4509L7.70448 18.855L7.97177 19.0665L8.23905 19.278L8.63998 19.5413L9.0409 19.8046L9.44183 20.0017L9.84276 20.1988L10.1602 20.3195L10.4776 20.4402L10.8258 20.5382L11.1741 20.6361H11.2057H11.2374L11.0242 20.4101L10.8109 20.184L10.6574 19.9841L10.5039 19.7842L10.3491 19.5422L10.1944 19.3002L9.9932 18.8989L9.79204 18.4977L9.66267 18.172L9.53334 17.8463L9.41113 17.4671L9.28888 17.0878L9.17324 16.6169L9.05761 16.1459V16.0857V16.0255H7.35451H5.65141L5.68208 16.1062ZM10.1446 16.1661L10.1684 16.3068L10.2829 16.7246L10.3974 17.1424L10.5668 17.5946L10.7362 18.0468L10.9164 18.4064L11.0967 18.766L11.2411 18.9911L11.3856 19.2162L11.5878 19.4668L11.79 19.7173L12.0063 19.8924L12.2226 20.0674L12.4526 20.1764L12.6827 20.2853H13.0001H13.3175L13.5464 20.1769L13.7753 20.0684L13.988 19.8993L14.2006 19.73L14.4078 19.4731L14.6151 19.2162L14.743 19.019L14.8709 18.8218L15.0679 18.4343L15.2648 18.0468L15.4337 17.5946L15.6027 17.1424L15.7172 16.7246L15.8317 16.3068L15.8555 16.1661L15.8792 16.0255H13.0001H10.1209L10.1446 16.1661ZM16.9425 16.0857V16.1459L16.826 16.6202L16.7096 17.0946L16.5734 17.5131L16.4372 17.9317L16.32 18.2232L16.2028 18.5146L16.0082 18.9012L15.8137 19.2878L15.655 19.536L15.4962 19.7842L15.3427 19.9841L15.1892 20.184L14.9759 20.4101L14.7627 20.6361H14.7975H14.8323L15.2364 20.5198L15.6404 20.4035L16.0158 20.2504L16.3912 20.0972L16.7086 19.9288L17.026 19.7604L17.3601 19.5425L17.6942 19.3246L17.9782 19.105L18.2622 18.8853L18.6805 18.4661L19.0988 18.0468L19.3867 17.6626L19.6746 17.2784L19.8576 16.9777L20.0406 16.677L20.1641 16.4314L20.2877 16.1859L20.3182 16.1057L20.3487 16.0255H18.6456H16.9425V16.0857Z" fill="#ADACAC"/>
</svg>
